<svg width="20" height="20" viewBox="0 0 20 20" fill="none" xmlns="http://www.w3.org/2000/svg">
<g id="Icon">
<path id="Star 5" d="M9.56663 2.91557C9.72675 2.53059 10.2721 2.53059 10.4322 2.91557L12.2039 7.17511C12.2714 7.33741 12.424 7.4483 12.5992 7.46235L17.1978 7.83101C17.6134 7.86433 17.7819 8.38301 17.4653 8.65426L13.9617 11.6555C13.8282 11.7698 13.7699 11.9492 13.8106 12.1202L14.8811 16.6076C14.9778 17.0132 14.5366 17.3338 14.1808 17.1164L10.2438 14.7117C10.0938 14.6201 9.9051 14.6201 9.7551 14.7117L5.8181 17.1164C5.46228 17.3338 5.02106 17.0132 5.11781 16.6076L6.18822 12.1202C6.229 11.9492 6.1707 11.7698 6.03721 11.6555L2.53361 8.65426C2.21695 8.38301 2.38548 7.86433 2.80109 7.83101L7.39963 7.46235C7.57485 7.4483 7.72748 7.33741 7.79498 7.17511L9.56663 2.91557Z" stroke="#999999" stroke-linecap="round" stroke-linejoin="round"/>
</g>
</svg>
