<svg width="22" height="17" viewBox="0 0 22 17" fill="none" xmlns="http://www.w3.org/2000/svg">
<g id="Frame" clip-path="url(#clip0_291_5145)">
<g id="Union" filter="url(#filter0_b_291_5145)">
<mask id="path-1-inside-1_291_5145" fill="white">
<path fill-rule="evenodd" clip-rule="evenodd" d="M10.4077 3.41292H11.8314C11.8314 3.18951 11.8331 2.97103 11.8347 2.75553C11.8379 2.33323 11.841 1.92238 11.8314 1.50838C11.8171 1.13466 11.5151 0.861559 11.1555 0.839999C10.796 0.825625 10.4365 1.07717 10.4149 1.43651C10.3948 1.89343 10.3993 2.35034 10.4038 2.81215C10.4058 3.01136 10.4077 3.21149 10.4077 3.41292ZM0.736913 10.43C0.513354 11.1747 0.290352 11.9176 0.319602 12.7128C0.319602 12.7607 0.318803 12.8086 0.318004 12.8566C0.316406 12.9524 0.314808 13.0482 0.319602 13.144C0.477791 15.6451 2.85782 17.2621 5.23784 16.4716C6.29484 16.1194 7.04983 15.4079 7.48844 14.3874C7.89111 13.4603 8.53825 12.7775 9.48738 12.4397C10.4509 12.0947 11.4504 12.1019 12.4283 12.3391C13.4996 12.605 14.1899 13.3309 14.6357 14.3299C15.3763 16.0044 17.2315 16.9603 18.9356 16.565C20.9848 16.0907 22.3366 13.9418 21.7974 11.9079C21.33 10.1255 20.8267 8.35753 20.2658 6.60392C19.3886 3.85851 15.8581 2.75891 13.7082 4.72813C13.6219 4.80719 13.4709 4.8575 13.3558 4.8575C11.8458 4.86468 10.3358 4.86468 8.82586 4.8575C8.69643 4.8575 8.53825 4.80719 8.44477 4.72095C6.23731 2.72298 2.62772 3.89445 1.80802 6.74766C1.73072 7.01178 1.65297 7.2759 1.57523 7.54003C1.34199 8.33238 1.10875 9.12474 0.887645 9.9171C0.83939 10.0886 0.788137 10.2593 0.736913 10.43ZM15.2595 9.13029C15.3397 9.0526 15.4274 8.96765 15.5273 8.86781C15.4507 8.79977 15.3775 8.73844 15.3081 8.68029C15.2015 8.59103 15.1039 8.50926 15.0168 8.42222C14.6501 8.05568 14.6285 7.62447 14.9377 7.31543C15.2469 7.00639 15.6783 7.04233 16.045 7.40886C16.1645 7.52829 16.2795 7.65221 16.4185 7.80201C16.4551 7.84151 16.4935 7.88282 16.534 7.92632C16.5915 7.86243 16.6459 7.80044 16.6986 7.74034C16.8238 7.59761 16.9396 7.46556 17.0661 7.34418C17.3896 7.03514 17.8067 7.02795 18.0943 7.30824C18.3963 7.60291 18.3891 8.03412 18.0727 8.36472C17.952 8.49059 17.8199 8.60499 17.6622 8.74141C17.6039 8.79193 17.542 8.84547 17.4759 8.90374C17.566 8.98791 17.6513 9.06271 17.7324 9.13381C17.8521 9.23876 17.9627 9.33565 18.0655 9.44276C18.3891 9.78055 18.3891 10.2118 18.0943 10.4992C17.7923 10.7939 17.3753 10.7795 17.0445 10.4489C16.9372 10.337 16.839 10.2161 16.7303 10.0821C16.6714 10.0096 16.6094 9.93321 16.5412 9.85242C16.4566 9.94222 16.3827 10.0233 16.3145 10.0981C16.1972 10.2269 16.0967 10.3372 15.9875 10.4417C15.6424 10.7723 15.2325 10.7939 14.9305 10.4992C14.6213 10.1974 14.6357 9.76617 14.9737 9.41401C15.0632 9.32048 15.155 9.23155 15.2595 9.13029ZM5.09796 8.19055C5.18158 8.19138 5.26826 8.19223 5.36008 8.19223C5.36008 8.11856 5.35958 8.04985 5.35911 7.98468C5.35779 7.80188 5.35667 7.64685 5.36727 7.48791C5.38165 7.0567 5.68365 6.74766 6.08631 6.75485C6.48179 6.75485 6.78378 7.06389 6.79816 7.50229C6.80286 7.64315 6.80142 7.78401 6.79986 7.93689C6.79903 8.01802 6.79816 8.10254 6.79816 8.19223C6.88132 8.19223 6.96198 8.1914 7.04099 8.19059C7.19427 8.18901 7.34136 8.18749 7.48844 8.19223C7.91987 8.20661 8.22906 8.50846 8.22906 8.90374C8.22906 9.30621 7.91987 9.60806 7.48844 9.62243C7.34862 9.62709 7.21181 9.62571 7.05844 9.62416C6.97521 9.62332 6.8871 9.62243 6.79097 9.62243C6.79097 9.70374 6.79182 9.78167 6.79264 9.85738C6.79421 10.0025 6.7957 10.1395 6.79097 10.2764C6.78378 10.7436 6.50336 11.0526 6.08631 11.0598C5.66208 11.067 5.36727 10.7508 5.36008 10.2621V9.62243C5.26795 9.62243 5.18099 9.62329 5.09742 9.62412C4.93966 9.62569 4.79394 9.62713 4.64823 9.62243C4.23119 9.60087 3.92919 9.30621 3.922 8.9253C3.90762 8.53002 4.20962 8.2138 4.64104 8.19223C4.79172 8.18753 4.93932 8.18899 5.09796 8.19055Z"/>
</mask>
<path fill-rule="evenodd" clip-rule="evenodd" d="M10.4077 3.41292H11.8314C11.8314 3.18951 11.8331 2.97103 11.8347 2.75553C11.8379 2.33323 11.841 1.92238 11.8314 1.50838C11.8171 1.13466 11.5151 0.861559 11.1555 0.839999C10.796 0.825625 10.4365 1.07717 10.4149 1.43651C10.3948 1.89343 10.3993 2.35034 10.4038 2.81215C10.4058 3.01136 10.4077 3.21149 10.4077 3.41292ZM0.736913 10.43C0.513354 11.1747 0.290352 11.9176 0.319602 12.7128C0.319602 12.7607 0.318803 12.8086 0.318004 12.8566C0.316406 12.9524 0.314808 13.0482 0.319602 13.144C0.477791 15.6451 2.85782 17.2621 5.23784 16.4716C6.29484 16.1194 7.04983 15.4079 7.48844 14.3874C7.89111 13.4603 8.53825 12.7775 9.48738 12.4397C10.4509 12.0947 11.4504 12.1019 12.4283 12.3391C13.4996 12.605 14.1899 13.3309 14.6357 14.3299C15.3763 16.0044 17.2315 16.9603 18.9356 16.565C20.9848 16.0907 22.3366 13.9418 21.7974 11.9079C21.33 10.1255 20.8267 8.35753 20.2658 6.60392C19.3886 3.85851 15.8581 2.75891 13.7082 4.72813C13.6219 4.80719 13.4709 4.8575 13.3558 4.8575C11.8458 4.86468 10.3358 4.86468 8.82586 4.8575C8.69643 4.8575 8.53825 4.80719 8.44477 4.72095C6.23731 2.72298 2.62772 3.89445 1.80802 6.74766C1.73072 7.01178 1.65297 7.2759 1.57523 7.54003C1.34199 8.33238 1.10875 9.12474 0.887645 9.9171C0.83939 10.0886 0.788137 10.2593 0.736913 10.43ZM15.2595 9.13029C15.3397 9.0526 15.4274 8.96765 15.5273 8.86781C15.4507 8.79977 15.3775 8.73844 15.3081 8.68029C15.2015 8.59103 15.1039 8.50926 15.0168 8.42222C14.6501 8.05568 14.6285 7.62447 14.9377 7.31543C15.2469 7.00639 15.6783 7.04233 16.045 7.40886C16.1645 7.52829 16.2795 7.65221 16.4185 7.80201C16.4551 7.84151 16.4935 7.88282 16.534 7.92632C16.5915 7.86243 16.6459 7.80044 16.6986 7.74034C16.8238 7.59761 16.9396 7.46556 17.0661 7.34418C17.3896 7.03514 17.8067 7.02795 18.0943 7.30824C18.3963 7.60291 18.3891 8.03412 18.0727 8.36472C17.952 8.49059 17.8199 8.60499 17.6622 8.74141C17.6039 8.79193 17.542 8.84547 17.4759 8.90374C17.566 8.98791 17.6513 9.06271 17.7324 9.13381C17.8521 9.23876 17.9627 9.33565 18.0655 9.44276C18.3891 9.78055 18.3891 10.2118 18.0943 10.4992C17.7923 10.7939 17.3753 10.7795 17.0445 10.4489C16.9372 10.337 16.839 10.2161 16.7303 10.0821C16.6714 10.0096 16.6094 9.93321 16.5412 9.85242C16.4566 9.94222 16.3827 10.0233 16.3145 10.0981C16.1972 10.2269 16.0967 10.3372 15.9875 10.4417C15.6424 10.7723 15.2325 10.7939 14.9305 10.4992C14.6213 10.1974 14.6357 9.76617 14.9737 9.41401C15.0632 9.32048 15.155 9.23155 15.2595 9.13029ZM5.09796 8.19055C5.18158 8.19138 5.26826 8.19223 5.36008 8.19223C5.36008 8.11856 5.35958 8.04985 5.35911 7.98468C5.35779 7.80188 5.35667 7.64685 5.36727 7.48791C5.38165 7.0567 5.68365 6.74766 6.08631 6.75485C6.48179 6.75485 6.78378 7.06389 6.79816 7.50229C6.80286 7.64315 6.80142 7.78401 6.79986 7.93689C6.79903 8.01802 6.79816 8.10254 6.79816 8.19223C6.88132 8.19223 6.96198 8.1914 7.04099 8.19059C7.19427 8.18901 7.34136 8.18749 7.48844 8.19223C7.91987 8.20661 8.22906 8.50846 8.22906 8.90374C8.22906 9.30621 7.91987 9.60806 7.48844 9.62243C7.34862 9.62709 7.21181 9.62571 7.05844 9.62416C6.97521 9.62332 6.8871 9.62243 6.79097 9.62243C6.79097 9.70374 6.79182 9.78167 6.79264 9.85738C6.79421 10.0025 6.7957 10.1395 6.79097 10.2764C6.78378 10.7436 6.50336 11.0526 6.08631 11.0598C5.66208 11.067 5.36727 10.7508 5.36008 10.2621V9.62243C5.26795 9.62243 5.18099 9.62329 5.09742 9.62412C4.93966 9.62569 4.79394 9.62713 4.64823 9.62243C4.23119 9.60087 3.92919 9.30621 3.922 8.9253C3.90762 8.53002 4.20962 8.2138 4.64104 8.19223C4.79172 8.18753 4.93932 8.18899 5.09796 8.19055Z" fill="#E60000"/>
<path d="M11.8314 3.41292V4.41292H12.8314V3.41292H11.8314ZM10.4077 3.41292H9.40775V4.41292H10.4077V3.41292ZM11.8347 2.75553L12.8347 2.76304V2.76304L11.8347 2.75553ZM11.8314 1.50838L12.8312 1.48539L12.831 1.47766L12.8307 1.46993L11.8314 1.50838ZM11.1555 0.839999L11.2154 -0.158208L11.2055 -0.158805L11.1955 -0.159203L11.1555 0.839999ZM10.4149 1.43651L9.41673 1.37659L9.41625 1.38458L9.4159 1.39258L10.4149 1.43651ZM10.4038 2.81215L11.4038 2.80236V2.80236L10.4038 2.81215ZM0.319602 12.7128H1.3196V12.6944L1.31893 12.6761L0.319602 12.7128ZM0.736913 10.43L1.69469 10.7175L1.69469 10.7175L0.736913 10.43ZM0.318004 12.8566L-0.681857 12.8399L0.318004 12.8566ZM0.319602 13.144L-0.679236 13.194L-0.678404 13.2072L0.319602 13.144ZM5.23784 16.4716L5.55307 17.4206L5.55393 17.4203L5.23784 16.4716ZM7.48844 14.3874L6.57121 13.989L6.5697 13.9925L7.48844 14.3874ZM9.48738 12.4397L9.82267 13.3818L9.82446 13.3812L9.48738 12.4397ZM12.4283 12.3391L12.6692 11.3685L12.664 11.3673L12.4283 12.3391ZM14.6357 14.3299L15.5503 13.9254L15.5489 13.9224L14.6357 14.3299ZM18.9356 16.565L18.7101 15.5908L18.7096 15.5909L18.9356 16.565ZM21.7974 11.9079L20.8301 12.1615L20.8308 12.1642L21.7974 11.9079ZM20.2658 6.60392L19.3133 6.90829L19.3133 6.90855L20.2658 6.60392ZM13.7082 4.72813L13.0327 3.99071L13.0326 3.99082L13.7082 4.72813ZM13.3558 4.8575V3.85749L13.3511 3.85751L13.3558 4.8575ZM8.82586 4.8575L8.83062 3.8575H8.82586V4.8575ZM8.44477 4.72095L9.1229 3.98594L9.11582 3.97953L8.44477 4.72095ZM1.80802 6.74766L2.76777 7.02854L2.76914 7.02378L1.80802 6.74766ZM1.57523 7.54003L2.53453 7.82241L1.57523 7.54003ZM0.887645 9.9171L1.85026 10.188L1.85085 10.1859L0.887645 9.9171ZM15.5273 8.86781L16.2343 9.57508L16.9847 8.82498L16.1915 8.12024L15.5273 8.86781ZM15.2595 9.13029L14.5638 8.412L14.5638 8.41201L15.2595 9.13029ZM15.3081 8.68029L14.666 9.44692L14.666 9.44692L15.3081 8.68029ZM15.0168 8.42222L14.3099 9.12949L14.3099 9.12949L15.0168 8.42222ZM16.045 7.40886L16.752 6.70158L16.752 6.70158L16.045 7.40886ZM16.4185 7.80201L17.1516 7.12185L17.1516 7.12185L16.4185 7.80201ZM16.534 7.92632L15.8023 8.60792L16.5465 9.40687L17.2771 8.59546L16.534 7.92632ZM16.6986 7.74034L15.9468 7.08098L15.9467 7.08099L16.6986 7.74034ZM17.0661 7.34418L16.3754 6.62102L16.3737 6.62262L17.0661 7.34418ZM18.0943 7.30824L18.7927 6.5925L18.7922 6.59207L18.0943 7.30824ZM18.0727 8.36472L18.7945 9.05681L18.7952 9.05612L18.0727 8.36472ZM17.6622 8.74141L17.0078 7.98527L17.0078 7.98528L17.6622 8.74141ZM17.4759 8.90374L16.8145 8.15374L15.9886 8.8821L16.7929 9.63417L17.4759 8.90374ZM17.7324 9.13381L17.0732 9.88581L17.0732 9.88581L17.7324 9.13381ZM18.0655 9.44276L18.7877 8.75101L18.7868 8.75006L18.0655 9.44276ZM18.0943 10.4992L17.3962 9.78329L17.3959 9.78349L18.0943 10.4992ZM17.0445 10.4489L16.3227 11.141L16.33 11.1487L16.3376 11.1562L17.0445 10.4489ZM16.7303 10.0821L17.5066 9.45183L17.5066 9.45182L16.7303 10.0821ZM16.5412 9.85242L17.3053 9.20737L16.5819 8.35043L15.8131 9.16687L16.5412 9.85242ZM16.3145 10.0981L15.5754 9.42455L15.5754 9.42455L16.3145 10.0981ZM15.9875 10.4417L15.2958 9.71959L15.2958 9.71959L15.9875 10.4417ZM14.9305 10.4992L14.232 11.2148L14.2322 11.215L14.9305 10.4992ZM14.9737 9.41401L15.6952 10.1064L15.6961 10.1054L14.9737 9.41401ZM5.36008 8.19223V9.19223H6.36008V8.19223H5.36008ZM5.09796 8.19055L5.10784 7.1906H5.10784L5.09796 8.19055ZM5.35911 7.98468L6.35909 7.97745V7.97745L5.35911 7.98468ZM5.36727 7.48791L6.36506 7.55446L6.36616 7.53787L6.36672 7.52125L5.36727 7.48791ZM6.08631 6.75485L6.06847 7.75469L6.07739 7.75485H6.08631V6.75485ZM6.79816 7.50229L5.7987 7.53507L5.79872 7.53562L6.79816 7.50229ZM6.79986 7.93689L5.79991 7.92666V7.92666L6.79986 7.93689ZM6.79816 8.19223H5.79816V9.19223H6.79816V8.19223ZM7.04099 8.19059L7.0513 9.19054H7.0513L7.04099 8.19059ZM7.48844 8.19223L7.52174 7.19279L7.52067 7.19275L7.48844 8.19223ZM7.48844 9.62243L7.45515 8.62299H7.45515L7.48844 9.62243ZM7.05844 9.62416L7.04835 10.6241H7.04835L7.05844 9.62416ZM6.79097 9.62243V8.62243H5.79097V9.62243H6.79097ZM6.79264 9.85738L5.7927 9.86823V9.86823L6.79264 9.85738ZM6.79097 10.2764L5.79157 10.242L5.79124 10.2515L5.79109 10.2611L6.79097 10.2764ZM6.08631 11.0598L6.10325 12.0597L6.10354 12.0597L6.08631 11.0598ZM5.36008 10.2621H4.36008V10.2694L4.36019 10.2768L5.36008 10.2621ZM5.36008 9.62243H6.36008V8.62243H5.36008V9.62243ZM5.09742 9.62412L5.10733 10.6241H5.10733L5.09742 9.62412ZM4.64823 9.62243L4.5966 10.6211L4.6063 10.6216L4.61601 10.6219L4.64823 9.62243ZM3.922 8.9253L4.92182 8.90643L4.92166 8.89768L4.92134 8.88894L3.922 8.9253ZM4.64104 8.19223L4.60982 7.19272L4.60047 7.19301L4.59113 7.19348L4.64104 8.19223ZM11.8314 2.41292H10.4077V4.41292H11.8314V2.41292ZM10.8347 2.74801C10.8331 2.96296 10.8314 3.18515 10.8314 3.41292H12.8314C12.8314 3.19387 12.8331 2.97909 12.8347 2.76304L10.8347 2.74801ZM10.8317 1.53138C10.8408 1.92757 10.8379 2.32315 10.8347 2.74801L12.8347 2.76304C12.8378 2.3433 12.8411 1.91719 12.8312 1.48539L10.8317 1.53138ZM11.0957 1.83821C11.0409 1.83492 10.9807 1.81199 10.9294 1.76252C10.8739 1.70909 10.8354 1.62975 10.8322 1.54683L12.8307 1.46993C12.7945 0.529845 12.0341 -0.109112 11.2154 -0.158208L11.0957 1.83821ZM11.4131 1.49643C11.4038 1.65251 11.3202 1.75065 11.269 1.79011C11.2235 1.82522 11.1737 1.84152 11.1156 1.8392L11.1955 -0.159203C10.4445 -0.189228 9.47937 0.333069 9.41673 1.37659L11.4131 1.49643ZM11.4038 2.80236C11.3992 2.33601 11.3953 1.90602 11.414 1.48045L9.4159 1.39258C9.39443 1.88083 9.39941 2.36467 9.40388 2.82194L11.4038 2.80236ZM11.4077 3.41292C11.4077 3.20579 11.4057 3.00079 11.4038 2.80236L9.40388 2.82194C9.40584 3.02194 9.40775 3.21719 9.40775 3.41292H11.4077ZM1.31893 12.6761C1.29675 12.0731 1.46348 11.4877 1.69469 10.7175L-0.220865 10.1425C-0.43677 10.8617 -0.716044 11.7621 -0.679722 12.7496L1.31893 12.6761ZM1.31787 12.8732C1.31864 12.8267 1.3196 12.7705 1.3196 12.7128H-0.680398C-0.680398 12.751 -0.681035 12.7906 -0.681857 12.8399L1.31787 12.8732ZM1.31835 13.0941C1.3155 13.0371 1.31617 12.9746 1.31787 12.8732L-0.681857 12.8399C-0.683362 12.9302 -0.685886 13.0593 -0.679149 13.194L1.31835 13.0941ZM4.92261 15.5226C3.16906 16.105 1.43468 14.9319 1.31761 13.0809L-0.678404 13.2072C-0.479097 16.3583 2.54657 18.4193 5.55307 17.4206L4.92261 15.5226ZM6.5697 13.9925C6.24027 14.759 5.69979 15.2636 4.92176 15.5229L5.55393 17.4203C6.88988 16.9752 7.85939 16.0568 8.40718 14.7822L6.5697 13.9925ZM9.15209 11.4976C7.90119 11.9428 7.06565 12.8506 6.57122 13.989L8.40567 14.7857C8.71657 14.0699 9.1753 13.6122 9.82267 13.3818L9.15209 11.4976ZM12.664 11.3673C11.5377 11.0941 10.3341 11.0744 9.1503 11.4982L9.82446 13.3812C10.5677 13.1151 11.363 13.1097 12.1926 13.3109L12.664 11.3673ZM15.5489 13.9224C15.0134 12.7224 14.1153 11.7275 12.6692 11.3685L12.1874 13.3096C12.884 13.4825 13.3664 13.9394 13.7225 14.7374L15.5489 13.9224ZM18.7096 15.5909C17.4983 15.8719 16.1073 15.185 15.5503 13.9254L13.7212 14.7344C14.6453 16.8239 16.9646 18.0487 19.1615 17.5391L18.7096 15.5909ZM20.8308 12.1642C21.2193 13.6296 20.2322 15.2384 18.7101 15.5908L19.1611 17.5393C21.7375 16.9429 23.454 14.2539 22.764 11.6516L20.8308 12.1642ZM19.3133 6.90855C19.8677 8.6419 20.3662 10.3924 20.8301 12.1615L22.7647 11.6542C22.2938 9.85859 21.7856 8.07316 21.2183 6.2993L19.3133 6.90855ZM14.3836 5.46555C15.9469 4.03365 18.6378 4.79425 19.3133 6.90829L21.2184 6.29955C20.1394 2.92277 15.7693 1.48418 13.0327 3.99071L14.3836 5.46555ZM13.3558 5.8575C13.6795 5.8575 14.0846 5.73953 14.3837 5.46545L13.0326 3.99082C13.0774 3.94979 13.1167 3.92474 13.1418 3.91058C13.1679 3.89586 13.1898 3.88666 13.2066 3.88067C13.2327 3.87136 13.2803 3.8575 13.3558 3.8575V5.8575ZM8.8211 5.85749C10.3343 5.86469 11.8474 5.86469 13.3606 5.85749L13.3511 3.85751C11.8442 3.86468 10.3374 3.86468 8.83062 3.85751L8.8211 5.85749ZM7.76667 5.45591C8.08386 5.74856 8.50379 5.8575 8.82586 5.8575V3.8575C8.88219 3.8575 8.92081 3.86683 8.94923 3.87668C8.9739 3.88522 9.04251 3.91183 9.12287 3.98598L7.76667 5.45591ZM2.76914 7.02378C3.40194 4.82116 6.16095 4.00264 7.77372 5.46236L9.11582 3.97953C6.31368 1.44332 1.85351 2.96774 0.846896 6.47154L2.76914 7.02378ZM2.53453 7.82241C2.61224 7.55841 2.69021 7.29354 2.76776 7.02854L0.848274 6.46678C0.771233 6.73003 0.693708 6.9934 0.615924 7.25765L2.53453 7.82241ZM1.85085 10.1859C2.06973 9.40148 2.30095 8.61592 2.53453 7.82241L0.615924 7.25765C0.383024 8.04885 0.147768 8.84801 -0.0755574 9.64832L1.85085 10.1859ZM1.69469 10.7175C1.7455 10.5482 1.79927 10.3692 1.85026 10.188L-0.0749719 9.64623C-0.120488 9.80799 -0.169225 9.97043 -0.220865 10.1425L1.69469 10.7175ZM14.8204 8.16053C14.7267 8.25417 14.6442 8.33414 14.5638 8.412L15.9553 9.84858C16.0353 9.77107 16.1282 9.68114 16.2343 9.57508L14.8204 8.16053ZM14.666 9.44692C14.7366 9.50601 14.799 9.55842 14.8631 9.61538L16.1915 8.12024C16.1025 8.04112 16.0185 7.97087 15.9502 7.91366L14.666 9.44692ZM14.3099 9.12949C14.4337 9.2533 14.5667 9.36373 14.666 9.44692L15.9502 7.91367C15.8364 7.81832 15.774 7.76521 15.7237 7.71494L14.3099 9.12949ZM14.2308 6.60815C13.8928 6.94596 13.6927 7.40541 13.7259 7.91257C13.758 8.40228 13.9985 8.81831 14.3099 9.12949L15.7237 7.71494C15.6684 7.65959 15.7148 7.67674 15.7217 7.78195C15.7251 7.83374 15.7166 7.8883 15.697 7.93754C15.6778 7.98559 15.6544 8.013 15.6446 8.02271L14.2308 6.60815ZM16.752 6.70158C16.447 6.39676 16.0382 6.15306 15.5536 6.11232C15.0458 6.06963 14.5773 6.26179 14.2308 6.60815L15.6446 8.02271C15.6319 8.03545 15.6003 8.06162 15.5475 8.08187C15.4937 8.10251 15.4368 8.10956 15.386 8.10529C15.2861 8.09689 15.2764 8.05443 15.3381 8.11614L16.752 6.70158ZM17.1516 7.12185C17.0154 6.97506 16.8872 6.83676 16.752 6.70158L15.3381 8.11613C15.4418 8.21981 15.5437 8.32937 15.6854 8.48217L17.1516 7.12185ZM17.2657 7.24471C17.226 7.20205 17.1883 7.16144 17.1516 7.12185L15.6854 8.48216C15.722 8.52158 15.761 8.56359 15.8023 8.60792L17.2657 7.24471ZM15.9467 7.08099C15.8935 7.14171 15.8433 7.1989 15.7909 7.25717L17.2771 8.59546C17.3397 8.52597 17.3983 8.45918 17.4504 8.3997L15.9467 7.08099ZM16.3737 6.62262C16.2107 6.779 16.0666 6.94436 15.9468 7.08098L17.4504 8.39971C17.5809 8.25086 17.6684 8.15211 17.7584 8.06573L16.3737 6.62262ZM18.7922 6.59207C18.4647 6.27287 18.0297 6.09176 17.5639 6.10566C17.1037 6.11938 16.6907 6.31986 16.3754 6.62102L17.7568 8.06733C17.765 8.05945 17.7223 8.10182 17.6235 8.10477C17.519 8.10788 17.4363 8.06332 17.3964 8.02441L18.7922 6.59207ZM18.7952 9.05612C19.1016 8.73593 19.3061 8.31347 19.3152 7.84234C19.3245 7.36395 19.1294 6.92103 18.7927 6.5925L17.3959 8.02398C17.382 8.01035 17.3599 7.98333 17.342 7.94105C17.324 7.89848 17.3147 7.85088 17.3156 7.80368C17.3175 7.70447 17.3602 7.66292 17.3503 7.67332L18.7952 9.05612ZM18.3166 9.49755C18.4667 9.3677 18.6358 9.2224 18.7945 9.05681L17.3509 7.67264C17.2683 7.75879 17.1731 7.84227 17.0078 7.98527L18.3166 9.49755ZM18.1374 9.65374C18.1994 9.599 18.2579 9.54837 18.3167 9.49755L17.0078 7.98528C16.9498 8.0355 16.8846 8.09195 16.8145 8.15374L18.1374 9.65374ZM18.3916 8.38181C18.3093 8.30973 18.2355 8.24496 18.1589 8.17331L16.7929 9.63417C16.8964 9.73086 16.9932 9.81569 17.0732 9.88581L18.3916 8.38181ZM18.7868 8.75006C18.649 8.60667 18.5055 8.48165 18.3916 8.3818L17.0732 9.88581C17.1988 9.99587 17.2763 10.0646 17.3443 10.1355L18.7868 8.75006ZM18.7925 11.2152C19.1266 10.8894 19.3209 10.4479 19.3116 9.97054C19.3025 9.49892 19.0976 9.07459 18.7877 8.75101L17.3434 10.1345C17.357 10.1487 17.3139 10.1089 17.312 10.0092C17.31 9.9038 17.3568 9.82163 17.3962 9.78329L18.7925 11.2152ZM16.3376 11.1562C16.6462 11.4647 17.0596 11.6866 17.5361 11.7076C18.0214 11.729 18.4634 11.5363 18.7927 11.215L17.3959 9.78349C17.4062 9.77345 17.432 9.75221 17.4759 9.73456C17.5205 9.71657 17.5721 9.70723 17.6242 9.70953C17.7341 9.71437 17.7735 9.76375 17.7514 9.74165L16.3376 11.1562ZM15.9539 10.7124C16.0575 10.84 16.1818 10.9941 16.3227 11.141L17.7663 9.75686C17.6926 9.67999 17.6205 9.59211 17.5066 9.45183L15.9539 10.7124ZM15.777 10.4975C15.8382 10.5699 15.8944 10.6391 15.9539 10.7124L17.5066 9.45182C17.4483 9.38002 17.3806 9.29653 17.3053 9.20737L15.777 10.4975ZM17.0536 10.7717C17.1222 10.6965 17.1909 10.6211 17.2692 10.538L15.8131 9.16687C15.7223 9.26338 15.6433 9.35007 15.5754 9.42455L17.0536 10.7717ZM16.6792 11.1639C16.8172 11.0317 16.9408 10.8955 17.0536 10.7717L15.5754 9.42455C15.4535 9.5583 15.3761 9.64268 15.2958 9.71959L16.6792 11.1639ZM14.2322 11.215C14.5639 11.5387 15.0081 11.7298 15.4967 11.7035C15.9698 11.678 16.3747 11.4556 16.6792 11.1639L15.2958 9.71959C15.2552 9.75849 15.2826 9.71215 15.389 9.70641C15.4412 9.7036 15.4951 9.71241 15.5435 9.7316C15.5908 9.75039 15.6184 9.7733 15.6289 9.78349L14.2322 11.215ZM14.2522 8.72161C13.9487 9.03782 13.7284 9.4568 13.7101 9.93758C13.6914 10.4314 13.8914 10.8823 14.232 11.2148L15.6291 9.78369C15.6405 9.79483 15.6634 9.82174 15.6823 9.86699C15.7015 9.91298 15.7106 9.96408 15.7087 10.0134C15.7048 10.1151 15.6607 10.1424 15.6952 10.1064L14.2522 8.72161ZM14.5638 8.41201C14.4618 8.51074 14.3561 8.61299 14.2512 8.72262L15.6961 10.1054C15.7703 10.028 15.8481 9.95236 15.9553 9.84858L14.5638 8.41201ZM5.36008 7.19223C5.27393 7.19223 5.19201 7.19143 5.10784 7.1906L5.08809 9.1905C5.17114 9.19132 5.26259 9.19223 5.36008 9.19223V7.19223ZM4.35914 7.99191C4.35961 8.05745 4.36008 8.1227 4.36008 8.19223H6.36008C6.36008 8.11443 6.35956 8.04226 6.35909 7.97745L4.35914 7.99191ZM4.36949 7.42137C4.356 7.62357 4.35787 7.81614 4.35914 7.99191L6.35909 7.97745C6.35772 7.78762 6.35734 7.67013 6.36506 7.55446L4.36949 7.42137ZM6.10416 5.75501C5.08959 5.7369 4.39814 6.54558 4.36783 7.45458L6.36672 7.52125C6.36634 7.53257 6.35844 7.59257 6.29548 7.65683C6.22869 7.725 6.13919 7.75595 6.06847 7.75469L6.10416 5.75501ZM7.79763 7.4695C7.76785 6.56175 7.0886 5.75485 6.08631 5.75485V7.75485C6.01247 7.75485 5.92602 7.72158 5.86363 7.65657C5.80423 7.59466 5.79885 7.53953 5.7987 7.53507L7.79763 7.4695ZM7.79981 7.94712C7.80133 7.79832 7.80316 7.63537 7.79761 7.46896L5.79872 7.53562C5.80257 7.65093 5.80152 7.7697 5.79991 7.92666L7.79981 7.94712ZM7.79816 8.19223C7.79816 8.1084 7.79897 8.02881 7.79981 7.94712L5.79991 7.92666C5.79909 8.00723 5.79816 8.09667 5.79816 8.19223H7.79816ZM7.03068 7.19064C6.95096 7.19146 6.87536 7.19223 6.79816 7.19223V9.19223C6.88728 9.19223 6.973 9.19134 7.0513 9.19054L7.03068 7.19064ZM7.52067 7.19275C7.34871 7.18721 7.1802 7.1891 7.03068 7.19064L7.0513 9.19054C7.20835 9.18892 7.33401 9.18777 7.45622 9.19172L7.52067 7.19275ZM9.22906 8.90374C9.22906 7.90662 8.42746 7.22296 7.52174 7.19279L7.45515 9.19168C7.44365 9.1913 7.38701 9.1835 7.32603 9.12463C7.26218 9.063 7.22906 8.97766 7.22906 8.90374H9.22906ZM7.52174 10.6219C8.43422 10.5915 9.22906 9.90171 9.22906 8.90374H7.22906C7.22906 8.83829 7.25858 8.75469 7.32349 8.69159C7.38538 8.63143 7.44347 8.62338 7.45515 8.62299L7.52174 10.6219ZM7.04835 10.6241C7.19782 10.6256 7.35652 10.6274 7.52174 10.6219L7.45515 8.62299C7.34072 8.6268 7.22581 8.6258 7.06853 8.62421L7.04835 10.6241ZM6.79097 10.6224C6.88135 10.6224 6.96467 10.6233 7.04835 10.6241L7.06854 8.62421C6.98574 8.62338 6.89284 8.62243 6.79097 8.62243V10.6224ZM7.79258 9.84654C7.79175 9.77014 7.79097 9.69749 7.79097 9.62243H5.79097C5.79097 9.71 5.79189 9.79321 5.7927 9.86823L7.79258 9.84654ZM7.79038 10.3109C7.79602 10.1474 7.79411 9.98756 7.79258 9.84654L5.7927 9.86823C5.79432 10.0175 5.79538 10.1315 5.79157 10.242L7.79038 10.3109ZM6.10354 12.0597C6.56851 12.0517 7.01284 11.8675 7.33498 11.5103C7.64933 11.1617 7.78426 10.7202 7.79086 10.2918L5.79109 10.2611C5.79049 10.2999 5.78162 10.2464 5.84969 10.1709C5.88264 10.1344 5.9244 10.1041 5.96987 10.0842C6.01473 10.0645 6.05075 10.0603 6.06908 10.06L6.10354 12.0597ZM4.36019 10.2768C4.36665 10.7162 4.50542 11.1689 4.82962 11.5226C5.16296 11.8863 5.62369 12.0678 6.10325 12.0597L6.06938 10.06C6.09072 10.0596 6.13004 10.0633 6.17815 10.0833C6.22683 10.1035 6.27039 10.1346 6.30399 10.1712C6.37293 10.2464 6.3607 10.2967 6.35997 10.2474L4.36019 10.2768ZM4.36008 9.62243V10.2621H6.36008V9.62243H4.36008ZM5.10733 10.6241C5.19147 10.6232 5.27364 10.6224 5.36008 10.6224V8.62243C5.26226 8.62243 5.17052 8.62335 5.0875 8.62417L5.10733 10.6241ZM4.61601 10.6219C4.78643 10.6274 4.9535 10.6256 5.10733 10.6241L5.08751 8.62417C4.92581 8.62578 4.80146 8.62685 4.68046 8.62295L4.61601 10.6219ZM2.92218 8.94417C2.94044 9.91148 3.71912 10.5757 4.5966 10.6211L4.69986 8.62377C4.71556 8.62458 4.76902 8.63424 4.82566 8.68888C4.88466 8.74579 4.92033 8.82766 4.92182 8.90643L2.92218 8.94417ZM4.59113 7.19348C3.6694 7.23954 2.88641 7.96536 2.92266 8.96166L4.92134 8.88894C4.92411 8.96523 4.89315 9.05218 4.83103 9.11601C4.77079 9.17793 4.71037 9.19002 4.69095 9.19099L4.59113 7.19348ZM5.10784 7.1906C4.95268 7.18907 4.78449 7.18727 4.60982 7.19272L4.67226 9.19175C4.79895 9.18779 4.92595 9.1889 5.08809 9.1905L5.10784 7.1906Z" fill="#E60000" mask="url(#path-1-inside-1_291_5145)"/>
</g>
</g>
<defs>
<filter id="filter0_b_291_5145" x="-11.6836" y="-11.1606" width="45.6001" height="39.8342" filterUnits="userSpaceOnUse" color-interpolation-filters="sRGB">
<feFlood flood-opacity="0" result="BackgroundImageFix"/>
<feGaussianBlur in="BackgroundImageFix" stdDeviation="6"/>
<feComposite in2="SourceAlpha" operator="in" result="effect1_backgroundBlur_291_5145"/>
<feBlend mode="normal" in="SourceGraphic" in2="effect1_backgroundBlur_291_5145" result="shape"/>
</filter>
<clipPath id="clip0_291_5145">
<rect width="21.6" height="15.84" fill="white" transform="translate(0.319824 0.84)"/>
</clipPath>
</defs>
</svg>
