<svg width="23" height="17" viewBox="0 0 23 17" fill="none" xmlns="http://www.w3.org/2000/svg">
<g id="Frame" clip-path="url(#clip0_291_5135)">
<g id="Union" filter="url(#filter0_b_291_5135)">
<mask id="path-1-inside-1_291_5135" fill="white">
<path fill-rule="evenodd" clip-rule="evenodd" d="M18.882 0.720001H11.0784H3.28212C2.49077 0.720001 2.27095 0.939274 2.27095 1.70673V9.966C2.27095 10.7261 2.4981 10.9527 3.24549 10.9527H18.882C19.6294 10.9527 19.8565 10.7261 19.8565 9.966V1.70673C19.8565 0.946583 19.6294 0.720001 18.882 0.720001ZM1.02531 16.8H11.0271H21.1095C21.2854 16.8 21.4759 16.7927 21.6444 16.7342C22.0328 16.6027 22.15 16.2811 21.9522 15.9229C21.2562 14.6513 20.5529 13.3871 19.8496 12.1228L19.8492 12.1222C19.6807 11.8298 19.4389 11.6836 19.1018 11.6836H3.01834C2.68128 11.6836 2.43948 11.8298 2.27828 12.1222C1.57486 13.3867 0.871434 14.6511 0.175338 15.9229C-0.0224998 16.2811 0.102065 16.6027 0.490413 16.7342C0.651614 16.7927 0.842125 16.8 1.02531 16.8ZM11.518 15.3398C11.3642 15.339 11.2103 15.3382 11.0564 15.3382C10.9028 15.3382 10.7492 15.339 10.5953 15.3398C10.2868 15.3414 9.97713 15.3431 9.66423 15.3382C9.19528 15.3309 8.87288 15.0385 8.86555 14.6219C8.85822 14.1907 9.18795 13.8837 9.67888 13.8837C10.6021 13.8764 11.5327 13.8764 12.4559 13.8837C12.9249 13.891 13.2473 14.1833 13.2546 14.6C13.2619 15.0239 12.9322 15.3309 12.4413 15.3382C12.1335 15.3431 11.8258 15.3414 11.518 15.3398Z"/>
</mask>
<path fill-rule="evenodd" clip-rule="evenodd" d="M18.882 0.720001H11.0784H3.28212C2.49077 0.720001 2.27095 0.939274 2.27095 1.70673V9.966C2.27095 10.7261 2.4981 10.9527 3.24549 10.9527H18.882C19.6294 10.9527 19.8565 10.7261 19.8565 9.966V1.70673C19.8565 0.946583 19.6294 0.720001 18.882 0.720001ZM1.02531 16.8H11.0271H21.1095C21.2854 16.8 21.4759 16.7927 21.6444 16.7342C22.0328 16.6027 22.15 16.2811 21.9522 15.9229C21.2562 14.6513 20.5529 13.3871 19.8496 12.1228L19.8492 12.1222C19.6807 11.8298 19.4389 11.6836 19.1018 11.6836H3.01834C2.68128 11.6836 2.43948 11.8298 2.27828 12.1222C1.57486 13.3867 0.871434 14.6511 0.175338 15.9229C-0.0224998 16.2811 0.102065 16.6027 0.490413 16.7342C0.651614 16.7927 0.842125 16.8 1.02531 16.8ZM11.518 15.3398C11.3642 15.339 11.2103 15.3382 11.0564 15.3382C10.9028 15.3382 10.7492 15.339 10.5953 15.3398C10.2868 15.3414 9.97713 15.3431 9.66423 15.3382C9.19528 15.3309 8.87288 15.0385 8.86555 14.6219C8.85822 14.1907 9.18795 13.8837 9.67888 13.8837C10.6021 13.8764 11.5327 13.8764 12.4559 13.8837C12.9249 13.891 13.2473 14.1833 13.2546 14.6C13.2619 15.0239 12.9322 15.3309 12.4413 15.3382C12.1335 15.3431 11.8258 15.3414 11.518 15.3398Z" fill="#E60000"/>
<path d="M21.6444 16.7342L21.3235 15.7871L21.3166 15.7895L21.6444 16.7342ZM21.9522 15.9229L21.0749 16.403L21.0768 16.4064L21.9522 15.9229ZM19.8496 12.1228L20.7234 11.6367L20.7226 11.6352L19.8496 12.1228ZM19.8492 12.1222L20.7223 11.6345L20.7156 11.6228L19.8492 12.1222ZM2.27828 12.1222L3.15217 12.6083L3.15399 12.605L2.27828 12.1222ZM0.175338 15.9229L1.05067 16.4064L1.05254 16.403L0.175338 15.9229ZM0.490413 16.7342L0.831409 15.7942L0.821382 15.7905L0.811279 15.7871L0.490413 16.7342ZM11.518 15.3398L11.5233 14.3398H11.5233L11.518 15.3398ZM10.5953 15.3398L10.6006 16.3398H10.6006L10.5953 15.3398ZM9.66423 15.3382L9.67981 14.3383H9.67981L9.66423 15.3382ZM8.86555 14.6219L7.86569 14.6389L7.8657 14.6395L8.86555 14.6219ZM9.67888 13.8837V14.8837L9.6868 14.8836L9.67888 13.8837ZM12.4559 13.8837L12.4715 12.8838L12.4639 12.8837L12.4559 13.8837ZM13.2546 14.6L14.2545 14.5827L14.2545 14.5824L13.2546 14.6ZM12.4413 15.3382L12.4264 14.3383L12.4255 14.3383L12.4413 15.3382ZM11.0784 1.72H18.882V-0.279999H11.0784V1.72ZM3.28212 1.72H11.0784V-0.279999H3.28212V1.72ZM3.27095 1.70673C3.27095 1.67057 3.2716 1.6386 3.27277 1.61034C3.27393 1.58207 3.27558 1.55837 3.27745 1.53867C3.27933 1.51896 3.28134 1.50423 3.28306 1.49378C3.28479 1.48333 3.28607 1.47815 3.28627 1.47737C3.28676 1.47548 3.28194 1.49526 3.26493 1.5272C3.25634 1.54334 3.245 1.5619 3.23035 1.58168C3.21565 1.60154 3.19869 1.62119 3.1796 1.63989C3.16052 1.65858 3.14086 1.67482 3.12147 1.68859C3.10218 1.7023 3.08448 1.71265 3.06961 1.72025C3.04035 1.7352 3.02399 1.73858 3.02987 1.73713C3.03258 1.73646 3.0397 1.73484 3.0521 1.73287C3.06449 1.7309 3.08116 1.72873 3.10277 1.72675C3.12436 1.72477 3.14996 1.72306 3.18011 1.72186C3.21023 1.72066 3.24409 1.72 3.28212 1.72V-0.279999C2.87111 -0.279999 2.24336 -0.242737 1.77996 0.211249C1.30955 0.672109 1.27095 1.30243 1.27095 1.70673H3.27095ZM3.27095 9.966V1.70673H1.27095V9.966H3.27095ZM3.24549 9.95273C3.17629 9.95273 3.12484 9.95006 3.08735 9.94635C3.06897 9.94454 3.05535 9.94261 3.04582 9.94098C3.03629 9.93936 3.03175 9.9382 3.03138 9.9381C3.0304 9.93785 3.04963 9.94274 3.08034 9.95916C3.09583 9.96745 3.11359 9.97832 3.13251 9.99229C3.15152 10.0063 3.17039 10.0225 3.18845 10.0407C3.20651 10.059 3.22235 10.0778 3.23594 10.0966C3.24948 10.1153 3.25989 10.1327 3.2677 10.1475C3.28315 10.177 3.28732 10.1946 3.28657 10.1917C3.28624 10.1903 3.28489 10.1849 3.28314 10.1744C3.28138 10.1639 3.27936 10.1493 3.27748 10.1299C3.27366 10.0905 3.27095 10.0371 3.27095 9.966H1.27095C1.27095 10.3771 1.31537 10.9917 1.76745 11.4481C2.22269 11.9078 2.83817 11.9527 3.24549 11.9527V9.95273ZM18.882 9.95273H3.24549V11.9527H18.882V9.95273ZM18.8565 9.966C18.8565 10.0371 18.8538 10.0905 18.85 10.1299C18.8481 10.1493 18.8461 10.1639 18.8443 10.1744C18.8426 10.1849 18.8413 10.1904 18.8409 10.1917C18.8402 10.1946 18.8443 10.177 18.8598 10.1475C18.8676 10.1327 18.878 10.1153 18.8915 10.0966C18.9051 10.0778 18.921 10.059 18.939 10.0407C18.9571 10.0225 18.976 10.0063 18.995 9.99229C19.0139 9.97832 19.0317 9.96745 19.0471 9.95916C19.0779 9.94274 19.0971 9.93785 19.0961 9.9381C19.0957 9.9382 19.0912 9.93936 19.0817 9.94098C19.0721 9.94261 19.0585 9.94454 19.0401 9.94635C19.0026 9.95006 18.9512 9.95273 18.882 9.95273V11.9527C19.2893 11.9527 19.9048 11.9078 20.36 11.4481C20.8121 10.9917 20.8565 10.3771 20.8565 9.966H18.8565ZM18.8565 1.70673V9.966H20.8565V1.70673H18.8565ZM18.882 1.72C18.9512 1.72 19.0026 1.72267 19.0401 1.72638C19.0585 1.72819 19.0721 1.73012 19.0817 1.73174C19.0912 1.73337 19.0957 1.73453 19.0961 1.73463C19.0971 1.73488 19.0779 1.72999 19.0471 1.71357C19.0317 1.70528 19.0139 1.69441 18.995 1.68044C18.976 1.66641 18.9571 1.65024 18.939 1.632C18.921 1.61377 18.9051 1.5949 18.8915 1.57612C18.878 1.55742 18.8676 1.54007 18.8598 1.52518C18.8443 1.49574 18.8402 1.47815 18.8409 1.48107C18.8413 1.48238 18.8426 1.48788 18.8443 1.49837C18.8461 1.50887 18.8481 1.52346 18.85 1.5428C18.8538 1.5822 18.8565 1.6356 18.8565 1.70673H20.8565C20.8565 1.29558 20.8121 0.681065 20.36 0.224616C19.9048 -0.235037 19.2893 -0.279999 18.882 -0.279999V1.72ZM11.0271 15.8H1.02531V17.8H11.0271V15.8ZM21.1095 15.8H11.0271V17.8H21.1095V15.8ZM21.3166 15.7895C21.3279 15.7856 21.3197 15.79 21.2795 15.7941C21.2389 15.7982 21.1868 15.8 21.1095 15.8V17.8C21.2892 17.8 21.6301 17.7977 21.9722 17.679L21.3166 15.7895ZM21.0768 16.4064C21.0763 16.4054 21.0586 16.3733 21.0505 16.3115C21.0421 16.2465 21.0459 16.158 21.0818 16.0623C21.1607 15.852 21.3141 15.7903 21.3235 15.7871L21.9653 17.6813C22.363 17.5466 22.7693 17.2582 22.9544 16.7648C23.1376 16.2763 23.0251 15.7971 22.8275 15.4394L21.0768 16.4064ZM18.9757 12.609C19.6793 13.8737 20.3809 15.135 21.075 16.403L22.8294 15.4428C22.1315 14.1677 21.4265 12.9004 20.7234 11.6367L18.9757 12.609ZM18.9762 12.6098L18.9765 12.6105L20.7226 11.6352L20.7223 11.6345L18.9762 12.6098ZM19.1018 12.6836C19.1137 12.6836 19.1093 12.6849 19.0933 12.6809C19.0764 12.6766 19.0538 12.6683 19.0299 12.6541C19.0061 12.6401 18.9898 12.6255 18.9808 12.616C18.9725 12.6072 18.9743 12.6067 18.9828 12.6216L20.7156 11.6228C20.5629 11.3578 20.3472 11.1095 20.0476 10.9324C19.7461 10.7542 19.4197 10.6836 19.1018 10.6836V12.6836ZM3.01834 12.6836H19.1018V10.6836H3.01834V12.6836ZM3.15399 12.605C3.16031 12.5936 3.15992 12.5971 3.14931 12.6086C3.13802 12.6208 3.11954 12.6373 3.09403 12.6525C3.06847 12.6677 3.04466 12.6764 3.0273 12.6808C3.0109 12.6849 3.00636 12.6836 3.01834 12.6836V10.6836C2.70125 10.6836 2.37323 10.7539 2.0707 10.9341C1.76884 11.1139 1.55271 11.3671 1.40257 11.6393L3.15399 12.605ZM1.05254 16.403C1.74671 15.1348 2.44846 13.8733 3.15216 12.6083L1.4044 11.636C0.701251 12.9 -0.0038429 14.1675 -0.701861 15.4428L1.05254 16.403ZM0.811279 15.7871C0.817456 15.7892 0.965954 15.8472 1.04532 16.0518C1.12474 16.2564 1.05428 16.3999 1.05067 16.4064L-0.699991 15.4394C-0.901444 15.8041 -1.00854 16.2874 -0.819209 16.7753C-0.629933 17.2631 -0.224978 17.5477 0.169547 17.6813L0.811279 15.7871ZM1.02531 15.8C0.943185 15.8 0.889751 15.7981 0.849864 15.7941C0.809833 15.79 0.809301 15.7861 0.831409 15.7942L0.149417 17.6743C0.493893 17.7992 0.846186 17.8 1.02531 17.8V15.8ZM11.0564 16.3382C11.2072 16.3382 11.3584 16.339 11.5128 16.3398L11.5233 14.3398C11.3699 14.339 11.2134 14.3382 11.0564 14.3382V16.3382ZM10.6006 16.3398C10.7549 16.339 10.9059 16.3382 11.0564 16.3382V14.3382C10.8997 14.3382 10.7435 14.339 10.5901 14.3398L10.6006 16.3398ZM9.64864 16.3381C9.97368 16.3431 10.2937 16.3414 10.6006 16.3398L10.5901 14.3398C10.2799 14.3415 9.98059 14.343 9.67981 14.3383L9.64864 16.3381ZM7.8657 14.6395C7.87407 15.1155 8.06946 15.5589 8.42293 15.8769C8.76921 16.1885 9.21081 16.3312 9.64864 16.3381L9.67981 14.3383C9.64869 14.3378 9.69462 14.3307 9.76063 14.3901C9.79259 14.4189 9.82072 14.4565 9.84007 14.4997C9.85937 14.5427 9.86497 14.5802 9.86539 14.6043L7.8657 14.6395ZM9.67888 12.8837C9.22599 12.8837 8.76679 13.0273 8.41056 13.3531C8.04654 13.6859 7.85738 14.1499 7.86569 14.6389L9.8654 14.6049C9.86579 14.6279 9.86161 14.6663 9.8425 14.7118C9.82329 14.7576 9.79416 14.798 9.76018 14.8291C9.68971 14.8935 9.64084 14.8837 9.67888 14.8837V12.8837ZM12.4639 12.8837C11.5353 12.8764 10.5995 12.8764 9.67096 12.8837L9.6868 14.8836C10.6048 14.8764 11.5301 14.8764 12.448 14.8836L12.4639 12.8837ZM14.2545 14.5824C14.2461 14.1064 14.0507 13.6629 13.6972 13.3449C13.351 13.0334 12.9094 12.8906 12.4715 12.8838L12.4404 14.8836C12.4715 14.884 12.4255 14.8911 12.3595 14.8317C12.3276 14.803 12.2994 14.7654 12.2801 14.7222C12.2608 14.6791 12.2552 14.6417 12.2548 14.6176L14.2545 14.5824ZM12.4562 16.3381C12.905 16.3314 13.3579 16.1849 13.7096 15.8633C14.0696 15.5341 14.263 15.0738 14.2545 14.5827L12.2548 14.6172C12.2543 14.5899 12.2594 14.549 12.2791 14.5025C12.2988 14.4561 12.3279 14.4167 12.36 14.3873C12.4259 14.327 12.4685 14.3377 12.4264 14.3383L12.4562 16.3381ZM11.5128 16.3398C11.8188 16.3414 12.1371 16.3431 12.4571 16.3381L12.4255 14.3383C12.13 14.343 11.8328 14.3415 11.5233 14.3398L11.5128 16.3398Z" fill="#E60000" mask="url(#path-1-inside-1_291_5135)"/>
</g>
</g>
<defs>
<filter id="filter0_b_291_5135" x="-11.9175" y="-11.28" width="45.9644" height="40.08" filterUnits="userSpaceOnUse" color-interpolation-filters="sRGB">
<feFlood flood-opacity="0" result="BackgroundImageFix"/>
<feGaussianBlur in="BackgroundImageFix" stdDeviation="6"/>
<feComposite in2="SourceAlpha" operator="in" result="effect1_backgroundBlur_291_5135"/>
<feBlend mode="normal" in="SourceGraphic" in2="effect1_backgroundBlur_291_5135" result="shape"/>
</filter>
<clipPath id="clip0_291_5135">
<rect width="21.96" height="16.08" fill="white" transform="translate(0.0800781 0.720001)"/>
</clipPath>
</defs>
</svg>
