<svg width="117" height="36" viewBox="0 0 117 36" fill="none" xmlns="http://www.w3.org/2000/svg">
<path d="M29.0403 14.549C28.7954 6.87741 22.5791 0.686542 14.8817 0.5C14.6834 0.5 14.5202 0.651566 14.5202 0.849767L14.5085 6.003C14.5085 6.25949 14.3102 6.45769 14.0536 6.46935C6.37954 6.70253 0.186604 12.9284 0 20.6233C0 20.8215 0.151616 20.9847 0.349883 20.9847L5.49317 20.9963C5.74975 20.9963 5.94802 21.1945 5.95968 21.451C6.2046 29.1226 12.4325 35.3135 20.1183 35.5C20.3166 35.5 20.4798 35.3484 20.4798 35.1502L20.4915 29.997C20.4915 29.7405 20.6898 29.5423 20.9464 29.5306C28.6205 29.2858 34.8134 23.06 35 15.3767C35 15.1785 34.8484 15.0153 34.6501 15.0153L29.5068 15.0037C29.2502 15.0037 29.052 14.8055 29.0403 14.549ZM19.9783 29.4957C15.6165 29.2392 12.1176 25.6949 11.9543 21.3111C11.9427 21.1246 11.7911 20.973 11.6045 20.973L6.47284 20.9614C6.2046 20.9614 5.99467 20.7398 6.00633 20.4717C6.26291 16.1113 9.8084 12.6136 14.1936 12.4504C14.3802 12.4387 14.5318 12.2871 14.5318 12.1006L14.5435 6.95903C14.5435 6.69087 14.7651 6.48101 15.0333 6.49267C19.3952 6.74917 22.894 10.2935 23.0573 14.6772C23.069 14.8638 23.2206 15.0153 23.4072 15.0153L28.5388 15.027C28.8071 15.027 29.017 15.2485 29.0053 15.5167C28.7488 19.9937 25.0283 23.5496 20.4915 23.5496L20.4798 29.0293C20.4682 29.2975 20.2466 29.5073 19.9783 29.4957Z" fill="#E60000"/>
<path fill-rule="evenodd" clip-rule="evenodd" d="M14.3677 14.8983C14.3677 14.1928 15.124 13.7456 15.7421 14.0856L21.4508 17.2254C22.0915 17.5778 22.0915 18.4984 21.4508 18.8508L15.7421 21.9905C15.124 22.3305 14.3677 21.8833 14.3677 21.1779V14.8983Z" fill="white"/>
<path d="M36.75 16.1949C36.75 15.7523 36.8335 15.337 37.0004 14.9491C37.1674 14.5612 37.3932 14.2231 37.678 13.9347C37.9678 13.6412 38.3041 13.41 38.6871 13.2409C39.0701 13.0718 39.4801 12.9873 39.9171 12.9873H44.7636V15.1282H39.9171C39.7698 15.1282 39.6323 15.1555 39.5047 15.2102C39.377 15.2649 39.2641 15.342 39.1659 15.4415C39.0726 15.536 38.9989 15.6479 38.9449 15.7771C38.8909 15.9064 38.8639 16.0457 38.8639 16.1949C38.8639 16.3441 38.8909 16.4858 38.9449 16.6201C38.9989 16.7494 39.0726 16.8638 39.1659 16.9632C39.2641 17.0577 39.377 17.1323 39.5047 17.187C39.6323 17.2417 39.7698 17.2691 39.9171 17.2691H42.031C42.4681 17.2691 42.8781 17.3536 43.2611 17.5227C43.649 17.6868 43.9853 17.9155 44.2701 18.2089C44.5598 18.4974 44.7857 18.838 44.9478 19.2309C45.1147 19.6188 45.1982 20.034 45.1982 20.4766C45.1982 20.9192 45.1147 21.3345 44.9478 21.7224C44.7857 22.1103 44.5598 22.4509 44.2701 22.7443C43.9853 23.0328 43.649 23.2615 43.2611 23.4306C42.8781 23.5997 42.4681 23.6842 42.031 23.6842H37.3392V21.5433H42.031C42.1783 21.5433 42.3158 21.516 42.4435 21.4613C42.5712 21.4066 42.6816 21.332 42.7749 21.2375C42.8732 21.138 42.9493 21.0237 43.0033 20.8944C43.0573 20.7651 43.0843 20.6258 43.0843 20.4766C43.0843 20.3274 43.0573 20.1882 43.0033 20.0589C42.9493 19.9296 42.8732 19.8177 42.7749 19.7232C42.6816 19.6238 42.5712 19.5467 42.4435 19.492C42.3158 19.4373 42.1783 19.4099 42.031 19.4099H39.9171C39.4801 19.4099 39.0701 19.3254 38.6871 19.1563C38.3041 18.9872 37.9678 18.7585 37.678 18.47C37.3932 18.1766 37.1674 17.836 37.0004 17.4481C36.8335 17.0552 36.75 16.6375 36.75 16.1949Z" fill="white"/>
<path d="M50.1993 23.6842C49.7132 23.6842 49.2565 23.5922 48.8294 23.4082C48.4022 23.2192 48.0265 22.9631 47.7024 22.6399C47.3833 22.3117 47.1304 21.9312 46.9438 21.4986C46.7621 21.0659 46.6713 20.6034 46.6713 20.1111V17.739H45.6917V15.71H46.6713V12.5173H48.6747V15.71H51.724V17.739H48.6747V20.1111C48.6747 20.325 48.714 20.5264 48.7925 20.7153C48.8711 20.8993 48.9791 21.061 49.1166 21.2002C49.2541 21.3395 49.4161 21.4513 49.6027 21.5359C49.7893 21.6155 49.9882 21.6552 50.1993 21.6552H51.724V23.6842H50.1993Z" fill="white"/>
<path d="M54.869 23.6842H52.8583V15.6951H53.3444L54.0073 16.6425C54.3313 16.3441 54.6996 16.1153 55.1121 15.9562C55.5246 15.7921 55.9517 15.71 56.3937 15.71H58.1688V17.739H56.3937C56.1825 17.739 55.9837 17.7788 55.7971 17.8584C55.6105 17.9379 55.4484 18.0473 55.311 18.1866C55.1735 18.3258 55.0654 18.4899 54.9869 18.6789C54.9083 18.8679 54.869 19.0693 54.869 19.2831V23.6842Z" fill="white"/>
<path d="M62.0945 21.7298C62.1731 21.7547 62.2517 21.7721 62.3302 21.7821C62.4088 21.787 62.4874 21.7895 62.5659 21.7895C62.7623 21.7895 62.9514 21.7622 63.1331 21.7075C63.3148 21.6528 63.4842 21.5757 63.6413 21.4762C63.8033 21.3718 63.9457 21.2475 64.0685 21.1032C64.1961 20.954 64.2993 20.7899 64.3778 20.6109L65.8509 22.1103C65.6643 22.3788 65.4483 22.62 65.2028 22.8338C64.9622 23.0477 64.6995 23.2292 64.4147 23.3784C64.1348 23.5276 63.8377 23.6395 63.5234 23.7141C63.2141 23.7936 62.8949 23.8334 62.5659 23.8334C62.0111 23.8334 61.4881 23.729 60.9971 23.5201C60.511 23.3113 60.0838 23.0203 59.7155 22.6474C59.3521 22.2744 59.0649 21.8318 58.8537 21.3196C58.6426 20.8024 58.537 20.2354 58.537 19.6188C58.537 18.9872 58.6426 18.4104 58.8537 17.8882C59.0649 17.366 59.3521 16.9209 59.7155 16.5529C60.0838 16.1849 60.511 15.899 60.9971 15.6951C61.4881 15.4912 62.0111 15.3893 62.5659 15.3893C62.8949 15.3893 63.2165 15.429 63.5308 15.5086C63.8451 15.5882 64.1421 15.7026 64.422 15.8517C64.7068 16.0009 64.972 16.1849 65.2175 16.4037C65.463 16.6176 65.6791 16.8588 65.8657 17.1273L62.0945 21.7298ZM63.1257 17.5301C63.0324 17.4953 62.9391 17.4729 62.8458 17.463C62.7574 17.4531 62.6641 17.4481 62.5659 17.4481C62.291 17.4481 62.0307 17.5003 61.7852 17.6047C61.5446 17.7042 61.3334 17.8484 61.1518 18.0374C60.975 18.2264 60.835 18.4551 60.7319 18.7237C60.6288 18.9872 60.5773 19.2856 60.5773 19.6188C60.5773 19.6934 60.5797 19.7779 60.5846 19.8724C60.5944 19.9669 60.6067 20.0639 60.6214 20.1633C60.6411 20.2578 60.6632 20.3498 60.6877 20.4393C60.7123 20.5289 60.7442 20.6084 60.7835 20.678L63.1257 17.5301Z" fill="white"/>
<path d="M74.4611 23.6842H73.975L73.1943 22.5877C73.0028 22.7617 72.799 22.9258 72.583 23.08C72.3718 23.2292 72.1484 23.361 71.9127 23.4754C71.677 23.5848 71.4339 23.6718 71.1835 23.7364C70.938 23.8011 70.6876 23.8334 70.4322 23.8334C69.8774 23.8334 69.3544 23.7389 68.8634 23.55C68.3773 23.361 67.9501 23.0875 67.5818 22.7294C67.2184 22.3664 66.9312 21.9238 66.72 21.4016C66.5089 20.8795 66.4033 20.2852 66.4033 19.6188C66.4033 18.9972 66.5089 18.4278 66.72 17.9106C66.9312 17.3884 67.2184 16.9408 67.5818 16.5679C67.9501 16.1949 68.3773 15.9064 68.8634 15.7026C69.3544 15.4937 69.8774 15.3893 70.4322 15.3893C70.6876 15.3893 70.9405 15.4216 71.1909 15.4862C71.4413 15.5509 71.6844 15.6404 71.9201 15.7548C72.1558 15.8691 72.3792 16.0034 72.5903 16.1576C72.8064 16.3117 73.0077 16.4783 73.1943 16.6574L73.975 15.71H74.4611V23.6842ZM72.4356 19.6188C72.4356 19.3403 72.3816 19.0718 72.2736 18.8132C72.1705 18.5496 72.0281 18.3184 71.8464 18.1194C71.6647 17.9155 71.4511 17.7539 71.2056 17.6346C70.965 17.5102 70.7072 17.4481 70.4322 17.4481C70.1573 17.4481 69.897 17.4953 69.6515 17.5898C69.4109 17.6843 69.1998 17.8235 69.0181 18.0075C68.8413 18.1915 68.7014 18.4203 68.5982 18.6938C68.4951 18.9624 68.4436 19.2707 68.4436 19.6188C68.4436 19.9669 68.4951 20.2777 68.5982 20.5512C68.7014 20.8198 68.8413 21.046 69.0181 21.23C69.1998 21.414 69.4109 21.5533 69.6515 21.6478C69.897 21.7423 70.1573 21.7895 70.4322 21.7895C70.7072 21.7895 70.965 21.7298 71.2056 21.6105C71.4511 21.4862 71.6647 21.3245 71.8464 21.1256C72.0281 20.9217 72.1705 20.6905 72.2736 20.4319C72.3816 20.1683 72.4356 19.8973 72.4356 19.6188Z" fill="white"/>
<path d="M86.0323 23.6842H84.0289V18.6118C84.0289 18.4725 84.0019 18.3407 83.9479 18.2164C83.8988 18.0921 83.8275 17.9827 83.7343 17.8882C83.641 17.7937 83.5329 17.7216 83.4102 17.6719C83.2874 17.6172 83.1573 17.5898 83.0198 17.5898C82.8823 17.5898 82.7522 17.6172 82.6294 17.6719C82.5116 17.7216 82.406 17.7937 82.3127 17.8882C82.2243 17.9827 82.1531 18.0921 82.0991 18.2164C82.05 18.3407 82.0255 18.4725 82.0255 18.6118V23.6842H80.0147V18.6118C80.0147 18.4725 79.9877 18.3407 79.9337 18.2164C79.8846 18.0921 79.8134 17.9827 79.7201 17.8882C79.6268 17.7937 79.5188 17.7216 79.396 17.6719C79.2732 17.6172 79.1431 17.5898 79.0056 17.5898C78.8681 17.5898 78.738 17.6172 78.6153 17.6719C78.4974 17.7216 78.3918 17.7937 78.2985 17.8882C78.2102 17.9827 78.139 18.0921 78.0849 18.2164C78.0358 18.3407 78.0113 18.4725 78.0113 18.6118V23.6842H76.0005V15.6951H76.4866L77.0317 16.3068C77.3116 16.0681 77.6185 15.8841 77.9524 15.7548C78.2912 15.6205 78.6423 15.5534 79.0056 15.5534C79.3739 15.5534 79.7324 15.623 80.081 15.7622C80.4345 15.9015 80.7439 16.1427 81.009 16.4858C81.1318 16.3167 81.2717 16.1725 81.4289 16.0532C81.586 15.9338 81.7505 15.8368 81.9224 15.7622C82.0991 15.6876 82.2808 15.6354 82.4674 15.6056C82.654 15.5708 82.8381 15.5534 83.0198 15.5534C83.4372 15.5534 83.8275 15.6329 84.1909 15.7921C84.5592 15.9512 84.8784 16.17 85.1484 16.4485C85.4234 16.722 85.6395 17.0453 85.7966 17.4182C85.9537 17.7912 86.0323 18.1891 86.0323 18.6118V23.6842Z" fill="white"/>
<path d="M95.7915 12.9873L92.3224 23.6842H90.2085L86.7541 12.9873H89.1552L91.2618 20.126L93.3756 12.9873H95.7915Z" fill="white"/>
<path d="M98.966 13.5244C98.966 13.7134 98.9292 13.8899 98.8555 14.054C98.7868 14.2181 98.691 14.3623 98.5683 14.4867C98.4455 14.606 98.3007 14.703 98.1337 14.7776C97.9717 14.8472 97.7974 14.882 97.6108 14.882C97.4242 14.882 97.2474 14.8472 97.0805 14.7776C96.9184 14.703 96.776 14.606 96.6533 14.4867C96.5354 14.3623 96.4397 14.2181 96.366 14.054C96.2973 13.8899 96.2629 13.7134 96.2629 13.5244C96.2629 13.3404 96.2973 13.1663 96.366 13.0022C96.4397 12.8331 96.5354 12.6889 96.6533 12.5696C96.776 12.4452 96.9184 12.3483 97.0805 12.2786C97.2474 12.204 97.4242 12.1667 97.6108 12.1667C97.7974 12.1667 97.9717 12.204 98.1337 12.2786C98.3007 12.3483 98.4455 12.4452 98.5683 12.5696C98.691 12.6889 98.7868 12.8331 98.8555 13.0022C98.9292 13.1663 98.966 13.3404 98.966 13.5244ZM98.6198 23.6842H96.5943V15.6951H98.6198V23.6842Z" fill="white"/>
<path d="M108.055 19.6188C108.055 20.2454 107.949 20.8173 107.738 21.3345C107.527 21.8517 107.24 22.2968 106.877 22.6697C106.513 23.0377 106.086 23.3237 105.595 23.5276C105.109 23.7315 104.586 23.8334 104.026 23.8334C103.471 23.8334 102.948 23.729 102.457 23.5201C101.971 23.3113 101.544 23.0203 101.176 22.6474C100.812 22.2744 100.525 21.8318 100.314 21.3196C100.103 20.8024 99.9972 20.2354 99.9972 19.6188V12.5173H102.015V16.2471C102.123 16.1079 102.253 15.9835 102.406 15.8741C102.563 15.7647 102.73 15.6752 102.907 15.6056C103.088 15.536 103.275 15.4837 103.466 15.4489C103.658 15.4091 103.844 15.3893 104.026 15.3893C104.586 15.3893 105.109 15.4962 105.595 15.71C106.086 15.9189 106.513 16.2123 106.877 16.5902C107.24 16.9682 107.527 17.4158 107.738 17.9329C107.949 18.4452 108.055 19.0071 108.055 19.6188ZM106.029 19.6188C106.029 19.3105 105.975 19.0245 105.867 18.761C105.764 18.4924 105.622 18.2612 105.44 18.0672C105.259 17.8733 105.045 17.7216 104.799 17.6122C104.559 17.5028 104.301 17.4481 104.026 17.4481C103.751 17.4481 103.491 17.5102 103.245 17.6346C103.005 17.7539 102.794 17.9155 102.612 18.1194C102.43 18.3184 102.288 18.5496 102.185 18.8132C102.082 19.0718 102.03 19.3403 102.03 19.6188C102.03 19.9271 102.082 20.2131 102.185 20.4766C102.288 20.7402 102.43 20.969 102.612 21.1629C102.794 21.3569 103.005 21.511 103.245 21.6254C103.491 21.7348 103.751 21.7895 104.026 21.7895C104.301 21.7895 104.559 21.7348 104.799 21.6254C105.045 21.511 105.259 21.3569 105.44 21.1629C105.622 20.969 105.764 20.7402 105.867 20.4766C105.975 20.2131 106.029 19.9271 106.029 19.6188Z" fill="white"/>
<path d="M112.312 21.7298C112.391 21.7547 112.469 21.7721 112.548 21.7821C112.626 21.787 112.705 21.7895 112.784 21.7895C112.98 21.7895 113.169 21.7622 113.351 21.7075C113.532 21.6528 113.702 21.5757 113.859 21.4762C114.021 21.3718 114.163 21.2475 114.286 21.1032C114.414 20.954 114.517 20.7899 114.596 20.6109L116.069 22.1103C115.882 22.3788 115.666 22.62 115.42 22.8338C115.18 23.0477 114.917 23.2292 114.632 23.3784C114.352 23.5276 114.055 23.6395 113.741 23.7141C113.432 23.7936 113.113 23.8334 112.784 23.8334C112.229 23.8334 111.706 23.729 111.215 23.5201C110.729 23.3113 110.301 23.0203 109.933 22.6474C109.57 22.2744 109.283 21.8318 109.071 21.3196C108.86 20.8024 108.755 20.2354 108.755 19.6188C108.755 18.9872 108.86 18.4104 109.071 17.8882C109.283 17.366 109.57 16.9209 109.933 16.5529C110.301 16.1849 110.729 15.899 111.215 15.6951C111.706 15.4912 112.229 15.3893 112.784 15.3893C113.113 15.3893 113.434 15.429 113.748 15.5086C114.063 15.5882 114.36 15.7026 114.64 15.8517C114.925 16.0009 115.19 16.1849 115.435 16.4037C115.681 16.6176 115.897 16.8588 116.083 17.1273L112.312 21.7298ZM113.343 17.5301C113.25 17.4953 113.157 17.4729 113.064 17.463C112.975 17.4531 112.882 17.4481 112.784 17.4481C112.509 17.4481 112.248 17.5003 112.003 17.6047C111.762 17.7042 111.551 17.8484 111.369 18.0374C111.193 18.2264 111.053 18.4551 110.95 18.7237C110.847 18.9872 110.795 19.2856 110.795 19.6188C110.795 19.6934 110.797 19.7779 110.802 19.8724C110.812 19.9669 110.824 20.0639 110.839 20.1633C110.859 20.2578 110.881 20.3498 110.905 20.4393C110.93 20.5289 110.962 20.6084 111.001 20.678L113.343 17.5301Z" fill="white"/>
</svg>
