<svg width="21" height="20" viewBox="0 0 21 20" fill="none" xmlns="http://www.w3.org/2000/svg">
<g id="Icon">
<g id="Union">
<path d="M4.88867 3.88103C5.20292 3.7956 5.53358 3.75 5.87488 3.75H14.6249C14.9662 3.75 15.2968 3.7956 15.6111 3.88103C15.2005 3.06211 14.3533 2.5 13.3749 2.5H7.12488C6.14642 2.5 5.29925 3.06211 4.88867 3.88103Z" fill="#999999"/>
<path d="M2.125 10C2.125 8.61929 3.24429 7.5 4.625 7.5H15.875C17.2557 7.5 18.375 8.61929 18.375 10V15C18.375 16.3807 17.2557 17.5 15.875 17.5H4.625C3.24429 17.5 2.125 16.3807 2.125 15V10Z" fill="#999999"/>
<path d="M4.62488 6.25C4.28358 6.25 3.95292 6.2956 3.63867 6.38103C4.04925 5.56211 4.89642 5 5.87488 5H14.6249C15.6033 5 16.4505 5.56211 16.8611 6.38103C16.5468 6.2956 16.2162 6.25 15.8749 6.25H4.62488Z" fill="#999999"/>
</g>
</g>
</svg>
