<svg width="22" height="16" viewBox="0 0 22 16" fill="none" xmlns="http://www.w3.org/2000/svg">
<g id="Frame" clip-path="url(#clip0_291_5123)">
<g id="Group">
<g id="Union" filter="url(#filter0_b_291_5123)">
<mask id="path-1-inside-1_291_5123" fill="white">
<path fill-rule="evenodd" clip-rule="evenodd" d="M0.680138 10.0074V10.2954C7.62469 10.2954 14.5224 10.2954 21.4468 10.2887V10.0007V0.991003C21.4468 0.36133 21.1656 0.0799866 20.5227 0.0799866H1.60429C0.954706 0.0799866 0.680138 0.36133 0.680138 0.997702V10.0074ZM10.4344 6.97837C10.1544 7.14035 9.87247 7.30345 9.58685 7.4686V3.52979C10.3116 3.95198 11.0255 4.36332 11.7476 4.77935C12.1597 5.0168 12.5745 5.25579 12.9955 5.49919C12.1276 5.99887 11.2902 6.48333 10.4344 6.97837ZM18.2063 13.8913C18.1401 13.7289 18.0723 13.5627 18.0046 13.3902H18.005C18.9089 13.3902 19.7593 13.3902 20.5962 13.3835C21.0516 13.3768 21.3999 13.1223 21.4199 12.7136C21.4431 12.3247 21.4374 11.9326 21.4317 11.5373C21.4292 11.3606 21.4266 11.1834 21.4266 11.0055H0.67334V12.4256C0.67334 13.1022 0.954604 13.3835 1.62428 13.3835H4.10878C3.90118 13.906 3.70698 14.3883 3.51277 14.8706C3.43241 15.085 3.39893 15.2993 3.6668 15.3998C3.92797 15.5003 4.05521 15.3261 4.14227 15.1118C4.20112 14.9666 4.26111 14.8219 4.32108 14.6774C4.46584 14.3284 4.61043 13.9799 4.73828 13.6247C4.81195 13.4304 4.9124 13.3835 5.1066 13.3835C9.07779 13.3902 13.049 13.3902 17.0202 13.3835C17.2278 13.3835 17.3148 13.4505 17.3818 13.638C17.5337 14.0413 17.6958 14.4344 17.8592 14.8307C17.8831 14.8886 17.907 14.9465 17.9309 15.0046C17.9477 15.0414 17.9627 15.0766 17.9778 15.1118C17.9929 15.1469 18.0079 15.1821 18.0247 15.2189C18.1117 15.4132 18.2925 15.507 18.4533 15.3931C18.5604 15.3194 18.6542 15.085 18.614 14.9644C18.4979 14.6067 18.356 14.2587 18.2063 13.8913ZM13.5914 12.3251H11.0466C10.7656 12.3251 10.4839 12.3244 10.2019 12.3236C9.6371 12.3221 9.07134 12.3206 8.50856 12.3251C8.28087 12.3251 8.05988 12.2983 8.05318 12.0103C8.04649 11.7155 8.26748 11.6552 8.51526 11.6552H13.5981C13.8392 11.6552 14.0669 11.7088 14.0669 12.0036C14.0669 12.3117 13.8258 12.3251 13.5914 12.3251Z"/>
</mask>
<path fill-rule="evenodd" clip-rule="evenodd" d="M0.680138 10.0074V10.2954C7.62469 10.2954 14.5224 10.2954 21.4468 10.2887V10.0007V0.991003C21.4468 0.36133 21.1656 0.0799866 20.5227 0.0799866H1.60429C0.954706 0.0799866 0.680138 0.36133 0.680138 0.997702V10.0074ZM10.4344 6.97837C10.1544 7.14035 9.87247 7.30345 9.58685 7.4686V3.52979C10.3116 3.95198 11.0255 4.36332 11.7476 4.77935C12.1597 5.0168 12.5745 5.25579 12.9955 5.49919C12.1276 5.99887 11.2902 6.48333 10.4344 6.97837ZM18.2063 13.8913C18.1401 13.7289 18.0723 13.5627 18.0046 13.3902H18.005C18.9089 13.3902 19.7593 13.3902 20.5962 13.3835C21.0516 13.3768 21.3999 13.1223 21.4199 12.7136C21.4431 12.3247 21.4374 11.9326 21.4317 11.5373C21.4292 11.3606 21.4266 11.1834 21.4266 11.0055H0.67334V12.4256C0.67334 13.1022 0.954604 13.3835 1.62428 13.3835H4.10878C3.90118 13.906 3.70698 14.3883 3.51277 14.8706C3.43241 15.085 3.39893 15.2993 3.6668 15.3998C3.92797 15.5003 4.05521 15.3261 4.14227 15.1118C4.20112 14.9666 4.26111 14.8219 4.32108 14.6774C4.46584 14.3284 4.61043 13.9799 4.73828 13.6247C4.81195 13.4304 4.9124 13.3835 5.1066 13.3835C9.07779 13.3902 13.049 13.3902 17.0202 13.3835C17.2278 13.3835 17.3148 13.4505 17.3818 13.638C17.5337 14.0413 17.6958 14.4344 17.8592 14.8307C17.8831 14.8886 17.907 14.9465 17.9309 15.0046C17.9477 15.0414 17.9627 15.0766 17.9778 15.1118C17.9929 15.1469 18.0079 15.1821 18.0247 15.2189C18.1117 15.4132 18.2925 15.507 18.4533 15.3931C18.5604 15.3194 18.6542 15.085 18.614 14.9644C18.4979 14.6067 18.356 14.2587 18.2063 13.8913ZM13.5914 12.3251H11.0466C10.7656 12.3251 10.4839 12.3244 10.2019 12.3236C9.6371 12.3221 9.07134 12.3206 8.50856 12.3251C8.28087 12.3251 8.05988 12.2983 8.05318 12.0103C8.04649 11.7155 8.26748 11.6552 8.51526 11.6552H13.5981C13.8392 11.6552 14.0669 11.7088 14.0669 12.0036C14.0669 12.3117 13.8258 12.3251 13.5914 12.3251Z" fill="#E60000"/>
<path d="M0.680138 10.2954H-0.319862V11.2954H0.680138V10.2954ZM21.4468 10.2887L21.4478 11.2887L22.4468 11.2878V10.2887H21.4468ZM9.58685 7.4686H8.58685V9.20192L10.0874 8.33431L9.58685 7.4686ZM10.4344 6.97837L9.93368 6.11277H9.93368L10.4344 6.97837ZM9.58685 3.52979L10.0902 2.6657L8.58685 1.78998V3.52979H9.58685ZM11.7476 4.77935L11.2484 5.64582L11.7476 4.77935ZM12.9955 5.49919L13.4945 6.36582L14.9965 5.50104L13.4961 4.63349L12.9955 5.49919ZM18.0046 13.3902V12.3902H16.5375L17.0738 13.7558L18.0046 13.3902ZM18.2063 13.8913L17.2803 14.2687V14.2687L18.2063 13.8913ZM20.5962 13.3835L20.6042 14.3835L20.6109 14.3834L20.5962 13.3835ZM21.4199 12.7136L20.4217 12.6542L20.4212 12.6645L21.4199 12.7136ZM21.4317 11.5373L22.4316 11.5229V11.5228L21.4317 11.5373ZM21.4266 11.0055H22.4266V10.0055H21.4266V11.0055ZM0.67334 11.0055V10.0055H-0.32666V11.0055H0.67334ZM4.10878 13.3835L5.03812 13.7527L5.58215 12.3835H4.10878V13.3835ZM3.51277 14.8706L2.58515 14.4971L2.58064 14.5083L2.57641 14.5196L3.51277 14.8706ZM3.6668 15.3998L4.02587 14.4664L4.01801 14.4635L3.6668 15.3998ZM4.14227 15.1118L5.06877 15.488L5.06904 15.4874L4.14227 15.1118ZM4.32108 14.6774L5.24475 15.0606V15.0606L4.32108 14.6774ZM4.73828 13.6247L3.80325 13.2701L3.80024 13.278L3.79736 13.286L4.73828 13.6247ZM5.1066 13.3835L5.10829 12.3835H5.1066V13.3835ZM17.0202 13.3835V12.3835L17.0185 12.3835L17.0202 13.3835ZM17.3818 13.638L16.44 13.9743L16.4429 13.9825L16.446 13.9906L17.3818 13.638ZM17.8592 14.8307L18.7837 14.4494L18.7837 14.4494L17.8592 14.8307ZM17.9309 15.0046L17.0062 15.3852L17.0131 15.4019L17.0205 15.4183L17.9309 15.0046ZM17.9778 15.1118L18.897 14.7179L18.897 14.7179L17.9778 15.1118ZM18.0247 15.2189L18.9372 14.81L18.9351 14.8052L18.0247 15.2189ZM18.4533 15.3931L17.8866 14.569L17.8751 14.5771L18.4533 15.3931ZM18.614 14.9644L17.6628 15.2731L17.6653 15.2805L18.614 14.9644ZM10.2019 12.3236L10.2045 11.3236H10.2045L10.2019 12.3236ZM8.50856 12.3251V13.3251L8.5165 13.3251L8.50856 12.3251ZM8.05318 12.0103L7.05344 12.033L7.05345 12.0335L8.05318 12.0103ZM1.68014 10.2954V10.0074H-0.319862V10.2954H1.68014ZM21.4459 9.28873C14.522 9.29543 7.62477 9.29543 0.680138 9.29543V11.2954C7.62461 11.2954 14.5228 11.2954 21.4478 11.2887L21.4459 9.28873ZM20.4468 10.0007V10.2887H22.4468V10.0007H20.4468ZM20.4468 0.991003V10.0007H22.4468V0.991003H20.4468ZM20.5227 1.07999C20.615 1.07999 20.6477 1.09064 20.6421 1.08891C20.6376 1.08752 20.6216 1.08206 20.5988 1.0689C20.5753 1.0554 20.5487 1.03611 20.5226 1.01032C20.4965 0.9845 20.4764 0.957568 20.462 0.933039C20.4479 0.909086 20.4416 0.891551 20.4395 0.885065C20.4365 0.875439 20.4468 0.903472 20.4468 0.991003H22.4468C22.4468 0.550445 22.3509 0.00564421 21.9291 -0.411581C21.5098 -0.82636 20.965 -0.920013 20.5227 -0.920013V1.07999ZM1.60429 1.07999H20.5227V-0.920013H1.60429V1.07999ZM1.68014 0.997702C1.68014 0.905649 1.69066 0.874461 1.68841 0.881729C1.68673 0.88717 1.6808 0.90432 1.66691 0.928344C1.65265 0.952998 1.63248 0.980556 1.60583 1.00721C1.57918 1.03387 1.55174 1.05393 1.52738 1.06804C1.50364 1.08178 1.48693 1.0875 1.48211 1.089C1.47607 1.09087 1.50924 1.07999 1.60429 1.07999V-0.920013C1.16155 -0.920013 0.612122 -0.827628 0.191415 -0.406803C-0.22941 0.01414 -0.319862 0.562094 -0.319862 0.997702H1.68014ZM1.68014 10.0074V0.997702H-0.319862V10.0074H1.68014ZM10.0874 8.33431C10.3731 8.1691 10.6552 8.00594 10.9352 7.84397L9.93368 6.11277C9.65367 6.27476 9.37181 6.43781 9.0863 6.60289L10.0874 8.33431ZM8.58685 3.52979V7.4686H10.5868V3.52979H8.58685ZM12.2468 3.91288C11.5244 3.49666 10.8126 3.08651 10.0902 2.6657L9.0835 4.39388C9.81067 4.81746 10.5266 5.22997 11.2484 5.64582L12.2468 3.91288ZM13.4961 4.63349C13.0743 4.38964 12.6589 4.15027 12.2468 3.91287L11.2484 5.64582C11.6606 5.88333 12.0747 6.12194 12.495 6.3649L13.4961 4.63349ZM10.9352 7.84397C11.791 7.34885 12.6276 6.8649 13.4945 6.36582L12.4965 4.63257C11.6276 5.13284 10.7893 5.61781 9.93368 6.11277L10.9352 7.84397ZM17.0738 13.7558C17.1443 13.9351 17.2144 14.1072 17.2803 14.2687L19.1323 13.5138C19.0658 13.3506 19.0004 13.1902 18.9354 13.0246L17.0738 13.7558ZM18.005 12.3902H18.0046V14.3902H18.005V12.3902ZM20.5882 12.3835C19.756 12.3902 18.9097 12.3902 18.005 12.3902V14.3902C18.9081 14.3902 19.7626 14.3902 20.6042 14.3835L20.5882 12.3835ZM20.4212 12.6645C20.423 12.6275 20.4337 12.5779 20.4607 12.5263C20.4873 12.4754 20.5215 12.4382 20.552 12.4141C20.6099 12.3685 20.6339 12.3828 20.5815 12.3836L20.6109 14.3834C21.4009 14.3718 22.3642 13.8713 22.4187 12.7627L20.4212 12.6645ZM20.4318 11.5517C20.4376 11.9534 20.4423 12.3084 20.4217 12.6542L22.4182 12.773C22.4439 12.341 22.4372 11.9117 22.4316 11.5229L20.4318 11.5517ZM20.4266 11.0055C20.4266 11.1918 20.4293 11.3762 20.4318 11.5517L22.4316 11.5228C22.4291 11.3451 22.4266 11.175 22.4266 11.0055H20.4266ZM0.67334 12.0055H21.4266V10.0055H0.67334V12.0055ZM1.67334 12.4256V11.0055H-0.32666V12.4256H1.67334ZM1.62428 12.3835C1.57495 12.3835 1.53956 12.3809 1.51575 12.3779C1.49197 12.3749 1.48338 12.372 1.48623 12.3729C1.48954 12.3739 1.5055 12.3792 1.52889 12.3927C1.55299 12.4066 1.58032 12.4265 1.6068 12.4532C1.63327 12.4798 1.65282 12.507 1.66623 12.5305C1.67924 12.5533 1.68408 12.5684 1.68476 12.5706C1.6853 12.5724 1.68221 12.5627 1.67911 12.5377C1.676 12.5127 1.67334 12.4761 1.67334 12.4256H-0.32666C-0.32666 12.872 -0.238652 13.4337 0.188563 13.8633C0.617157 14.2944 1.17889 14.3835 1.62428 14.3835V12.3835ZM4.10878 12.3835H1.62428V14.3835H4.10878V12.3835ZM4.44039 15.2441C4.63451 14.762 4.82954 14.2777 5.03812 13.7527L3.17945 13.0143C2.97283 13.5343 2.77945 14.0145 2.58515 14.4971L4.44039 15.2441ZM4.01801 14.4635C4.06569 14.4814 4.16803 14.5301 4.26707 14.6419C4.37189 14.7603 4.42675 14.8972 4.44631 15.0179C4.4638 15.1258 4.45051 15.2021 4.44624 15.2237C4.4417 15.2467 4.43862 15.2497 4.44913 15.2216L2.57641 14.5196C2.5302 14.6428 2.41176 14.9658 2.47208 15.3379C2.50671 15.5515 2.5984 15.7743 2.76977 15.9678C2.93536 16.1548 3.13397 16.268 3.31559 16.3361L4.01801 14.4635ZM3.21577 14.7355C3.20664 14.7579 3.20761 14.751 3.22158 14.7288C3.23502 14.7074 3.27739 14.6446 3.36129 14.5803C3.45395 14.5093 3.58033 14.4499 3.72879 14.4334C3.87041 14.4177 3.97578 14.4472 4.02586 14.4665L3.30773 16.3331C3.71473 16.4897 4.18795 16.4668 4.57837 16.1674C4.87684 15.9385 5.01245 15.6267 5.06877 15.488L3.21577 14.7355ZM3.39741 14.2942C3.3377 14.4381 3.27613 14.5865 3.21549 14.7361L5.06904 15.4874C5.1261 15.3466 5.18452 15.2057 5.24475 15.0606L3.39741 14.2942ZM3.79736 13.286C3.67895 13.615 3.54369 13.9416 3.39741 14.2942L5.24475 15.0606C5.38798 14.7153 5.54191 14.3448 5.6792 13.9633L3.79736 13.286ZM5.1066 12.3835C4.95421 12.3835 4.65226 12.3958 4.35372 12.5792C4.0337 12.7759 3.8814 13.064 3.80325 13.2701L5.67331 13.9792C5.66882 13.9911 5.60359 14.1586 5.40076 14.2832C5.21941 14.3947 5.06479 14.3835 5.1066 14.3835V12.3835ZM17.0185 12.3835C13.0484 12.3902 9.07835 12.3902 5.10829 12.3835L5.10492 14.3835C9.07723 14.3902 13.0495 14.3902 17.0219 14.3835L17.0185 12.3835ZM18.3236 13.3018C18.263 13.1321 18.1355 12.8421 17.8362 12.6276C17.5345 12.4114 17.2149 12.3835 17.0202 12.3835V14.3835C17.0197 14.3835 17.0106 14.3835 16.9948 14.382C16.9789 14.3804 16.9536 14.377 16.9216 14.3693C16.8537 14.353 16.7632 14.3192 16.6712 14.2533C16.4841 14.1192 16.4336 13.9564 16.44 13.9743L18.3236 13.3018ZM18.7837 14.4494C18.6194 14.0509 18.4632 13.672 18.3176 13.2855L16.446 13.9906C16.6042 14.4107 16.7723 14.818 16.9348 15.2119L18.7837 14.4494ZM18.8556 14.6239C18.8316 14.5655 18.8076 14.5072 18.7837 14.4494L16.9348 15.2119C16.9587 15.2699 16.9825 15.3275 17.0062 15.3852L18.8556 14.6239ZM18.897 14.7179C18.8825 14.684 18.8633 14.6391 18.8413 14.5909L17.0205 15.4183C17.0321 15.4437 17.043 15.4692 17.0586 15.5056L18.897 14.7179ZM18.9351 14.8052C18.9235 14.7798 18.9126 14.7543 18.897 14.7179L17.0586 15.5056C17.0732 15.5395 17.0924 15.5844 17.1143 15.6326L18.9351 14.8052ZM17.8751 14.5771C17.963 14.5149 18.0835 14.4613 18.2289 14.4464C18.3736 14.4316 18.5064 14.4589 18.6138 14.5061C18.818 14.5959 18.9061 14.7405 18.9372 14.81L17.1121 15.6279C17.2303 15.8916 17.4524 16.1802 17.8089 16.337C18.2079 16.5124 18.6654 16.4683 19.0314 16.209L17.8751 14.5771ZM17.6653 15.2805C17.6123 15.1214 17.6227 14.9971 17.628 14.9527C17.6346 14.8977 17.6468 14.8601 17.6553 14.8381C17.664 14.8153 17.6777 14.7859 17.7018 14.7504C17.7209 14.7222 17.7771 14.6444 17.8866 14.5691L19.0199 16.2171C19.3124 16.0159 19.4579 15.723 19.5225 15.5546C19.5814 15.401 19.6936 15.0409 19.5627 14.6482L17.6653 15.2805ZM17.2803 14.2687C17.4325 14.6423 17.56 14.9562 17.6628 15.2731L19.5651 14.6557C19.4358 14.2572 19.2796 13.8751 19.1323 13.5138L17.2803 14.2687ZM11.0466 13.3251H13.5914V11.3251H11.0466V13.3251ZM10.1992 13.3236C10.481 13.3244 10.7641 13.3251 11.0466 13.3251V11.3251C10.7672 11.3251 10.4867 11.3244 10.2045 11.3236L10.1992 13.3236ZM8.5165 13.3251C9.0731 13.3207 9.63356 13.3221 10.1992 13.3236L10.2045 11.3236C9.64063 11.3221 9.06958 11.3206 8.50063 11.3251L8.5165 13.3251ZM7.05345 12.0335C7.05806 12.2317 7.10164 12.4636 7.23245 12.6867C7.36759 12.9172 7.55712 13.0723 7.74716 13.1683C8.06932 13.331 8.40741 13.3251 8.50856 13.3251V11.3251C8.46576 11.3251 8.46107 11.3234 8.47385 11.3251C8.48508 11.3266 8.55588 11.3362 8.64885 11.3831C8.75433 11.4364 8.87313 11.5308 8.95784 11.6753C9.03821 11.8124 9.05165 11.9328 9.05291 11.987L7.05345 12.0335ZM8.51526 10.6552C8.35305 10.6552 8.00067 10.6663 7.66927 10.8678C7.23325 11.1329 7.04326 11.5849 7.05344 12.033L9.05293 11.9876C9.05409 12.0388 9.04666 12.1492 8.9814 12.2792C8.91273 12.4159 8.80972 12.515 8.70831 12.5767C8.61692 12.6323 8.54275 12.6483 8.51946 12.6526C8.49483 12.6572 8.48976 12.6552 8.51526 12.6552V10.6552ZM13.5981 10.6552H8.51526V12.6552H13.5981V10.6552ZM15.0669 12.0036C15.0669 11.8011 15.0273 11.5715 14.9073 11.3494C14.7843 11.1218 14.6077 10.9595 14.4227 10.8528C14.095 10.6636 13.7508 10.6552 13.5981 10.6552V12.6552C13.6254 12.6552 13.6227 12.6571 13.6014 12.6534C13.5814 12.6499 13.5114 12.636 13.4231 12.585C13.3251 12.5285 13.2205 12.4348 13.1478 12.3002C13.078 12.1711 13.0669 12.0587 13.0669 12.0036H15.0669ZM13.5914 13.3251C13.6683 13.3251 14.0163 13.3373 14.3405 13.1858C14.5377 13.0936 14.7426 12.9368 14.8872 12.6913C15.0266 12.4547 15.0669 12.2088 15.0669 12.0036H13.0669C13.0669 11.9525 13.0771 11.8237 13.1639 11.6763C13.256 11.52 13.3859 11.4243 13.4936 11.374C13.5866 11.3305 13.6546 11.3243 13.656 11.3241C13.659 11.3238 13.6473 11.3251 13.5914 11.3251V13.3251Z" fill="#E60000" mask="url(#path-1-inside-1_291_5123)"/>
</g>
</g>
</g>
<defs>
<filter id="filter0_b_291_5123" x="-11.3267" y="-11.92" width="44.7734" height="39.3624" filterUnits="userSpaceOnUse" color-interpolation-filters="sRGB">
<feFlood flood-opacity="0" result="BackgroundImageFix"/>
<feGaussianBlur in="BackgroundImageFix" stdDeviation="6"/>
<feComposite in2="SourceAlpha" operator="in" result="effect1_backgroundBlur_291_5123"/>
<feBlend mode="normal" in="SourceGraphic" in2="effect1_backgroundBlur_291_5123" result="shape"/>
</filter>
<clipPath id="clip0_291_5123">
<rect width="20.76" height="15.36" fill="white" transform="translate(0.680176 0.0799866)"/>
</clipPath>
</defs>
</svg>
