<svg width="13" height="23" viewBox="0 0 13 23" fill="none" xmlns="http://www.w3.org/2000/svg">
<g id="Frame" clip-path="url(#clip0_291_5107)">
<g id="Vector" filter="url(#filter0_b_291_5107)">
<path d="M0.240303 11.76C0.240303 8.97404 0.233557 6.18128 0.240303 3.39527C0.240303 2.24849 0.82044 1.41201 1.83905 1.08147C2.0819 1.00052 2.34499 0.96679 2.60133 0.96679C4.95561 0.960045 7.30989 0.960045 9.65742 0.96679C11.0268 0.973536 12.0252 1.96517 12.0252 3.32781C12.0319 8.9538 12.0319 14.573 12.0252 20.199C12.0252 21.5617 11.0268 22.56 9.66416 22.56C7.33687 22.5668 5.00957 22.5668 2.68228 22.56C1.22519 22.56 0.253794 21.6021 0.247049 20.1316C0.233557 17.3388 0.240303 14.5528 0.240303 11.76ZM6.13612 2.92307C5.67741 2.92307 5.21869 2.92307 4.75323 2.92307C4.38896 2.92981 4.18659 3.09846 4.17984 3.39527C4.1731 3.69883 4.36198 3.90795 4.71276 3.90795C5.65717 3.92144 6.59483 3.92144 7.53924 3.90795C7.87653 3.90121 8.10589 3.67185 8.0924 3.39527C8.0789 3.11195 7.85629 2.92307 7.51226 2.92307C7.05355 2.92307 6.59483 2.92307 6.13612 2.92307ZM6.13612 18.6475C5.58296 18.6475 5.14449 19.086 5.15123 19.6256C5.15798 20.1653 5.60995 20.6038 6.14961 20.597C6.67578 20.5903 7.10077 20.1585 7.10077 19.6256C7.10751 19.0657 6.68927 18.6475 6.13612 18.6475Z" fill="#E60000"/>
<path d="M4.75323 2.42298V2.42307H4.75596H4.75869H4.76141H4.76414H4.76687H4.76959H4.77232H4.77505H4.77777H4.7805H4.78322H4.78595H4.78867H4.7914H4.79412H4.79685H4.79957H4.8023H4.80502H4.80775H4.81047H4.8132H4.81592H4.81864H4.82137H4.82409H4.82681H4.82954H4.83226H4.83498H4.83771H4.84043H4.84315H4.84587H4.8486H4.85132H4.85404H4.85676H4.85948H4.8622H4.86493H4.86765H4.87037H4.87309H4.87581H4.87853H4.88125H4.88397H4.88669H4.88941H4.89213H4.89485H4.89757H4.90029H4.90301H4.90573H4.90845H4.91117H4.91388H4.9166H4.91932H4.92204H4.92476H4.92748H4.93019H4.93291H4.93563H4.93835H4.94107H4.94378H4.9465H4.94922H4.95193H4.95465H4.95737H4.96008H4.9628H4.96552H4.96823H4.97095H4.97366H4.97638H4.9791H4.98181H4.98453H4.98724H4.98996H4.99267H4.99539H4.9981H5.00082H5.00353H5.00624H5.00896H5.01167H5.01439H5.0171H5.01981H5.02253H5.02524H5.02795H5.03067H5.03338H5.03609H5.03881H5.04152H5.04423H5.04694H5.04966H5.05237H5.05508H5.05779H5.0605H5.06322H5.06593H5.06864H5.07135H5.07406H5.07677H5.07948H5.08219H5.08491H5.08762H5.09033H5.09304H5.09575H5.09846H5.10117H5.10388H5.10659H5.1093H5.11201H5.11472H5.11743H5.12013H5.12284H5.12555H5.12826H5.13097H5.13368H5.13639H5.1391H5.1418H5.14451H5.14722H5.14993H5.15264H5.15534H5.15805H5.16076H5.16347H5.16617H5.16888H5.17159H5.1743H5.177H5.17971H5.18242H5.18512H5.18783H5.19054H5.19324H5.19595H5.19866H5.20136H5.20407H5.20677H5.20948H5.21218H5.21489H5.21759H5.2203H5.22301H5.22571H5.22842H5.23112H5.23382H5.23653H5.23923H5.24194H5.24464H5.24735H5.25005H5.25276H5.25546H5.25816H5.26087H5.26357H5.26627H5.26898H5.27168H5.27438H5.27709H5.27979H5.28249H5.2852H5.2879H5.2906H5.2933H5.29601H5.29871H5.30141H5.30411H5.30682H5.30952H5.31222H5.31492H5.31762H5.32032H5.32303H5.32573H5.32843H5.33113H5.33383H5.33653H5.33923H5.34194H5.34464H5.34734H5.35004H5.35274H5.35544H5.35814H5.36084H5.36354H5.36624H5.36894H5.37164H5.37434H5.37704H5.37974H5.38244H5.38514H5.38784H5.39054H5.39324H5.39594H5.39863H5.40133H5.40403H5.40673H5.40943H5.41213H5.41483H5.41753H5.42022H5.42292H5.42562H5.42832H5.43102H5.43372H5.43641H5.43911H5.44181H5.44451H5.44721H5.4499H5.4526H5.4553H5.458H5.46069H5.46339H5.46609H5.46878H5.47148H5.47418H5.47687H5.47957H5.48227H5.48496H5.48766H5.49036H5.49305H5.49575H5.49845H5.50114H5.50384H5.50654H5.50923H5.51193H5.51462H5.51732H5.52001H5.52271H5.52541H5.5281H5.5308H5.53349H5.53619H5.53888H5.54158H5.54427H5.54697H5.54966H5.55236H5.55505H5.55775H5.56044H5.56314H5.56583H5.56853H5.57122H5.57392H5.57661H5.5793H5.582H5.58469H5.58739H5.59008H5.59277H5.59547H5.59816H5.60086H5.60355H5.60624H5.60894H5.61163H5.61432H5.61702H5.61971H5.6224H5.6251H5.62779H5.63048H5.63318H5.63587H5.63856H5.64126H5.64395H5.64664H5.64933H5.65203H5.65472H5.65741H5.6601H5.6628H5.66549H5.66818H5.67087H5.67357H5.67626H5.67895H5.68164H5.68433H5.68703H5.68972H5.69241H5.6951H5.69779H5.70049H5.70318H5.70587H5.70856H5.71125H5.71394H5.71664H5.71933H5.72202H5.72471H5.7274H5.73009H5.73278H5.73547H5.73817H5.74086H5.74355H5.74624H5.74893H5.75162H5.75431H5.757H5.75969H5.76238H5.76507H5.76776H5.77045H5.77315H5.77584H5.77853H5.78122H5.78391H5.7866H5.78929H5.79198H5.79467H5.79736H5.80005H5.80274H5.80543H5.80812H5.81081H5.8135H5.81619H5.81888H5.82157H5.82426H5.82695H5.82964H5.83233H5.83502H5.83771H5.8404H5.84309H5.84578H5.84846H5.85115H5.85384H5.85653H5.85922H5.86191H5.8646H5.86729H5.86998H5.87267H5.87536H5.87805H5.88074H5.88343H5.88612H5.8888H5.89149H5.89418H5.89687H5.89956H5.90225H5.90494H5.90763H5.91032H5.913H5.91569H5.91838H5.92107H5.92376H5.92645H5.92914H5.93183H5.93451H5.9372H5.93989H5.94258H5.94527H5.94796H5.95065H5.95333H5.95602H5.95871H5.9614H5.96409H5.96678H5.96946H5.97215H5.97484H5.97753H5.98022H5.98291H5.98559H5.98828H5.99097H5.99366H5.99635H5.99904H6.00172H6.00441H6.0071H6.00979H6.01248H6.01516H6.01785H6.02054H6.02323H6.02592H6.0286H6.03129H6.03398H6.03667H6.03936H6.04204H6.04473H6.04742H6.05011H6.0528H6.05548H6.05817H6.06086H6.06355H6.06624H6.06892H6.07161H6.0743H6.07699H6.07967H6.08236H6.08505H6.08774H6.09043H6.09311H6.0958H6.09849H6.10118H6.10387H6.10655H6.10924H6.11193H6.11462H6.1173H6.11999H6.12268H6.12537H6.12806H6.13074H6.13343H6.13612H6.13881H6.14149H6.14418H6.14687H6.14956H6.15225H6.15493H6.15762H6.16031H6.163H6.16568H6.16837H6.17106H6.17375H6.17643H6.17912H6.18181H6.1845H6.18719H6.18987H6.19256H6.19525H6.19794H6.20062H6.20331H6.206H6.20869H6.21138H6.21406H6.21675H6.21944H6.22213H6.22481H6.2275H6.23019H6.23288H6.23557H6.23825H6.24094H6.24363H6.24632H6.249H6.25169H6.25438H6.25707H6.25976H6.26244H6.26513H6.26782H6.27051H6.27319H6.27588H6.27857H6.28126H6.28395H6.28663H6.28932H6.29201H6.2947H6.29738H6.30007H6.30276H6.30545H6.30814H6.31082H6.31351H6.3162H6.31889H6.32157H6.32426H6.32695H6.32964H6.33233H6.33501H6.3377H6.34039H6.34308H6.34576H6.34845H6.35114H6.35383H6.35652H6.3592H6.36189H6.36458H6.36727H6.36995H6.37264H6.37533H6.37802H6.38071H6.38339H6.38608H6.38877H6.39146H6.39414H6.39683H6.39952H6.40221H6.4049H6.40758H6.41027H6.41296H6.41565H6.41833H6.42102H6.42371H6.4264H6.42909H6.43177H6.43446H6.43715H6.43984H6.44252H6.44521H6.4479H6.45059H6.45328H6.45596H6.45865H6.46134H6.46403H6.46671H6.4694H6.47209H6.47478H6.47747H6.48015H6.48284H6.48553H6.48822H6.4909H6.49359H6.49628H6.49897H6.50166H6.50434H6.50703H6.50972H6.51241H6.51509H6.51778H6.52047H6.52316H6.52585H6.52853H6.53122H6.53391H6.5366H6.53928H6.54197H6.54466H6.54735H6.55004H6.55272H6.55541H6.5581H6.56079H6.56347H6.56616H6.56885H6.57154H6.57423H6.57691H6.5796H6.58229H6.58498H6.58766H6.59035H6.59304H6.59573H6.59842H6.6011H6.60379H6.60648H6.60917H6.61185H6.61454H6.61723H6.61992H6.62261H6.62529H6.62798H6.63067H6.63336H6.63604H6.63873H6.64142H6.64411H6.6468H6.64948H6.65217H6.65486H6.65755H6.66023H6.66292H6.66561H6.6683H6.67099H6.67367H6.67636H6.67905H6.68174H6.68442H6.68711H6.6898H6.69249H6.69518H6.69786H6.70055H6.70324H6.70593H6.70861H6.7113H6.71399H6.71668H6.71937H6.72205H6.72474H6.72743H6.73012H6.7328H6.73549H6.73818H6.74087H6.74356H6.74624H6.74893H6.75162H6.75431H6.75699H6.75968H6.76237H6.76506H6.76775H6.77043H6.77312H6.77581H6.7785H6.78118H6.78387H6.78656H6.78925H6.79194H6.79462H6.79731H6.8H6.80269H6.80537H6.80806H6.81075H6.81344H6.81613H6.81881H6.8215H6.82419H6.82688H6.82956H6.83225H6.83494H6.83763H6.84032H6.843H6.84569H6.84838H6.85107H6.85375H6.85644H6.85913H6.86182H6.86451H6.86719H6.86988H6.87257H6.87526H6.87794H6.88063H6.88332H6.88601H6.8887H6.89138H6.89407H6.89676H6.89945H6.90213H6.90482H6.90751H6.9102H6.91289H6.91557H6.91826H6.92095H6.92364H6.92632H6.92901H6.9317H6.93439H6.93708H6.93976H6.94245H6.94514H6.94783H6.95051H6.9532H6.95589H6.95858H6.96127H6.96395H6.96664H6.96933H6.97202H6.9747H6.97739H6.98008H6.98277H6.98546H6.98814H6.99083H6.99352H6.99621H6.99889H7.00158H7.00427H7.00696H7.00964H7.01233H7.01502H7.01771H7.0204H7.02308H7.02577H7.02846H7.03115H7.03383H7.03652H7.03921H7.0419H7.04459H7.04727H7.04996H7.05265H7.05534H7.05802H7.06071H7.0634H7.06609H7.06878H7.07146H7.07415H7.07684H7.07953H7.08221H7.0849H7.08759H7.09028H7.09297H7.09565H7.09834H7.10103H7.10372H7.1064H7.10909H7.11178H7.11447H7.11716H7.11984H7.12253H7.12522H7.12791H7.13059H7.13328H7.13597H7.13866H7.14135H7.14403H7.14672H7.14941H7.1521H7.15478H7.15747H7.16016H7.16285H7.16554H7.16822H7.17091H7.1736H7.17629H7.17897H7.18166H7.18435H7.18704H7.18973H7.19241H7.1951H7.19779H7.20048H7.20316H7.20585H7.20854H7.21123H7.21392H7.2166H7.21929H7.22198H7.22467H7.22735H7.23004H7.23273H7.23542H7.23811H7.24079H7.24348H7.24617H7.24886H7.25154H7.25423H7.25692H7.25961H7.2623H7.26498H7.26767H7.27036H7.27305H7.27573H7.27842H7.28111H7.2838H7.28649H7.28917H7.29186H7.29455H7.29724H7.29992H7.30261H7.3053H7.30799H7.31068H7.31336H7.31605H7.31874H7.32143H7.32411H7.3268H7.32949H7.33218H7.33487H7.33755H7.34024H7.34293H7.34562H7.3483H7.35099H7.35368H7.35637H7.35906H7.36174H7.36443H7.36712H7.36981H7.37249H7.37518H7.37787H7.38056H7.38325H7.38593H7.38862H7.39131H7.394H7.39668H7.39937H7.40206H7.40475H7.40744H7.41012H7.41281H7.4155H7.41819H7.42087H7.42356H7.42625H7.42894H7.43163H7.43431H7.437H7.43969H7.44238H7.44506H7.44775H7.45044H7.45313H7.45582H7.4585H7.46119H7.46388H7.46657H7.46925H7.47194H7.47463H7.47732H7.48001H7.48269H7.48538H7.48807H7.49076H7.49344H7.49613H7.49882H7.50151H7.5042H7.50688H7.50957H7.51226C7.7735 2.42307 8.03559 2.49522 8.24413 2.66696C8.45876 2.84371 8.57855 3.09583 8.5918 3.37091C8.59181 3.3711 8.59182 3.3713 8.59183 3.37149L8.0924 3.39527C8.10589 3.67185 7.87653 3.90121 7.53924 3.90795L4.75323 2.42298ZM4.75323 2.42298L4.74397 2.42315C4.49399 2.42778 4.22756 2.48851 4.01402 2.66491C3.78691 2.85253 3.68606 3.1158 3.67997 3.38391L3.67996 3.38416C3.67421 3.64308 3.75303 3.91336 3.95867 4.119C4.16284 4.32316 4.43538 4.40714 4.70878 4.40795L4.75323 2.42298ZM0.740303 3.39648V3.39527C0.740303 2.44557 1.19892 1.81486 1.99338 1.55706L1.99339 1.55707L1.99717 1.55581C2.17863 1.49532 2.38654 1.46679 2.60133 1.46679L2.60276 1.46679C4.9559 1.46005 7.30905 1.46005 9.65544 1.46679C10.7536 1.47242 11.5252 2.2447 11.5252 3.32781V3.32841C11.5319 8.954 11.5319 14.5728 11.5252 20.1984V20.199C11.5252 21.2855 10.7507 22.06 9.66416 22.06L9.66271 22.06C7.33639 22.0668 5.01006 22.0668 2.68373 22.06H2.68228C2.06552 22.06 1.59195 21.8594 1.27328 21.5427C0.954778 21.2261 0.749902 20.7525 0.747043 20.1293L0.747043 20.1291C0.736932 18.0363 0.738195 15.9477 0.739459 13.8555C0.739881 13.1575 0.740303 12.4591 0.740303 11.76C0.740303 10.8308 0.739553 9.90115 0.738804 8.97153C0.737305 7.11244 0.735805 5.2533 0.740303 3.39648ZM6.15586 21.097L6.15602 21.097C6.95788 21.0867 7.59914 20.4308 7.60076 19.6287C7.60932 18.7906 6.96568 18.1475 6.13612 18.1475C5.3126 18.1475 4.64094 18.8055 4.65127 19.6319C4.66149 20.4492 5.34163 21.1072 6.15586 21.097Z" stroke="#E60000"/>
</g>
</g>
<defs>
<filter id="filter0_b_291_5107" x="-11.7627" y="-11.0383" width="35.793" height="45.6034" filterUnits="userSpaceOnUse" color-interpolation-filters="sRGB">
<feFlood flood-opacity="0" result="BackgroundImageFix"/>
<feGaussianBlur in="BackgroundImageFix" stdDeviation="6"/>
<feComposite in2="SourceAlpha" operator="in" result="effect1_backgroundBlur_291_5107"/>
<feBlend mode="normal" in="SourceGraphic" in2="effect1_backgroundBlur_291_5107" result="shape"/>
</filter>
<clipPath id="clip0_291_5107">
<rect width="11.7849" height="21.6" fill="white" transform="translate(0.240234 0.960022)"/>
</clipPath>
</defs>
</svg>
