<svg width="24" height="24" viewBox="0 0 24 24" fill="none" xmlns="http://www.w3.org/2000/svg">
<g id="Icon">
<path id="Vector" d="M19.114 5.63603C22.6287 9.15075 22.6287 14.8492 19.114 18.364M16.4626 8.28777C18.5129 10.338 18.5129 13.6621 16.4626 15.7124M6.75 8.25005L11.4697 3.53038C11.9421 3.0579 12.75 3.39253 12.75 4.06071V19.9394C12.75 20.6076 11.9421 20.9422 11.4697 20.4697L6.75 15.75H4.50905C3.62971 15.75 2.8059 15.2436 2.57237 14.3958C2.36224 13.633 2.25 12.8296 2.25 12C2.25 11.1705 2.36224 10.3671 2.57237 9.60429C2.8059 8.75652 3.62971 8.25005 4.50905 8.25005H6.75Z" stroke="white" stroke-width="2" stroke-linecap="round" stroke-linejoin="round"/>
</g>
</svg>
