<svg width="21" height="16" viewBox="0 0 21 16" fill="none" xmlns="http://www.w3.org/2000/svg">
<g id="Frame" clip-path="url(#clip0_291_5155)">
<g id="Union" filter="url(#filter0_b_291_5155)">
<mask id="path-1-inside-1_291_5155" fill="white">
<path fill-rule="evenodd" clip-rule="evenodd" d="M9.5867 3.5565C9.76164 3.5558 9.93635 3.5551 10.1104 3.5551C10.2904 3.5551 10.4712 3.5558 10.6525 3.55649C11.0163 3.5579 11.3821 3.5593 11.7479 3.5551C12.3147 3.54251 12.6359 3.22148 12.6422 2.64866C12.6485 2.14508 12.6485 1.6415 12.6422 1.13792C12.6422 0.539914 12.3084 0.199997 11.7101 0.199997H8.52956C7.93755 0.206292 7.61005 0.539914 7.60375 1.14421V2.62348C7.60375 3.22777 7.92495 3.54881 8.53586 3.5551C8.88458 3.5593 9.23611 3.5579 9.5867 3.5565ZM16.6666 5.24209H10.1167H3.59822C2.40159 5.24209 1.7403 5.90304 1.7277 7.11163C1.72141 7.64039 1.60174 7.75999 1.07901 7.75999C1.05358 7.75999 1.02886 7.75928 1.00438 7.75857C0.956096 7.75718 0.908722 7.75582 0.858575 7.75999C0.392521 7.79147 0.0524271 8.11879 0.0461291 8.5909C0.039831 9.71137 0.039831 10.8381 0.0524271 11.9586C0.0524271 12.4433 0.398819 12.7706 0.890065 12.7958H1.20497C1.57025 12.8084 1.71511 12.9469 1.734 13.312V13.5952C1.7529 14.615 2.45198 15.3074 3.47226 15.3137C4.291 15.32 5.10975 15.32 5.92849 15.3137C6.66536 15.3137 7.33295 15.0934 7.92497 14.659C8.13597 14.5017 8.34539 14.3443 8.55482 14.1869C8.76421 14.0295 8.9736 13.8722 9.18457 13.7148C9.84587 13.2238 10.4253 13.2238 11.0866 13.7211C11.275 13.8596 11.4621 14.0004 11.6496 14.1416C11.8885 14.3214 12.128 14.5016 12.3714 14.6779C12.8059 14.999 13.2909 15.2382 13.8388 15.2633C14.66 15.3019 15.486 15.3067 16.3126 15.3115C16.4306 15.3122 16.5486 15.3129 16.6666 15.3137C17.8255 15.32 18.512 14.6402 18.5183 13.4882C18.5246 12.8965 18.6253 12.7958 19.2173 12.7958C19.8786 12.7958 20.2061 12.4748 20.2061 11.8201V8.73568C20.2061 8.08103 19.8786 7.75999 19.2173 7.75999C18.6253 7.7537 18.5246 7.65928 18.5183 7.06757C18.5057 5.91563 17.8255 5.24209 16.6666 5.24209Z"/>
</mask>
<path fill-rule="evenodd" clip-rule="evenodd" d="M9.5867 3.5565C9.76164 3.5558 9.93635 3.5551 10.1104 3.5551C10.2904 3.5551 10.4712 3.5558 10.6525 3.55649C11.0163 3.5579 11.3821 3.5593 11.7479 3.5551C12.3147 3.54251 12.6359 3.22148 12.6422 2.64866C12.6485 2.14508 12.6485 1.6415 12.6422 1.13792C12.6422 0.539914 12.3084 0.199997 11.7101 0.199997H8.52956C7.93755 0.206292 7.61005 0.539914 7.60375 1.14421V2.62348C7.60375 3.22777 7.92495 3.54881 8.53586 3.5551C8.88458 3.5593 9.23611 3.5579 9.5867 3.5565ZM16.6666 5.24209H10.1167H3.59822C2.40159 5.24209 1.7403 5.90304 1.7277 7.11163C1.72141 7.64039 1.60174 7.75999 1.07901 7.75999C1.05358 7.75999 1.02886 7.75928 1.00438 7.75857C0.956096 7.75718 0.908722 7.75582 0.858575 7.75999C0.392521 7.79147 0.0524271 8.11879 0.0461291 8.5909C0.039831 9.71137 0.039831 10.8381 0.0524271 11.9586C0.0524271 12.4433 0.398819 12.7706 0.890065 12.7958H1.20497C1.57025 12.8084 1.71511 12.9469 1.734 13.312V13.5952C1.7529 14.615 2.45198 15.3074 3.47226 15.3137C4.291 15.32 5.10975 15.32 5.92849 15.3137C6.66536 15.3137 7.33295 15.0934 7.92497 14.659C8.13597 14.5017 8.34539 14.3443 8.55482 14.1869C8.76421 14.0295 8.9736 13.8722 9.18457 13.7148C9.84587 13.2238 10.4253 13.2238 11.0866 13.7211C11.275 13.8596 11.4621 14.0004 11.6496 14.1416C11.8885 14.3214 12.128 14.5016 12.3714 14.6779C12.8059 14.999 13.2909 15.2382 13.8388 15.2633C14.66 15.3019 15.486 15.3067 16.3126 15.3115C16.4306 15.3122 16.5486 15.3129 16.6666 15.3137C17.8255 15.32 18.512 14.6402 18.5183 13.4882C18.5246 12.8965 18.6253 12.7958 19.2173 12.7958C19.8786 12.7958 20.2061 12.4748 20.2061 11.8201V8.73568C20.2061 8.08103 19.8786 7.75999 19.2173 7.75999C18.6253 7.7537 18.5246 7.65928 18.5183 7.06757C18.5057 5.91563 17.8255 5.24209 16.6666 5.24209Z" fill="#E60000"/>
<path d="M9.5867 3.5565L9.59069 4.55649L9.5867 3.5565ZM10.6525 3.55649L10.6563 2.5565H10.6563L10.6525 3.55649ZM11.7479 3.5551L11.7593 4.55509L11.7701 4.55485L11.7479 3.5551ZM12.6422 2.64866L11.6423 2.63615L11.6422 2.63766L12.6422 2.64866ZM12.6422 1.13792H11.6421L11.6423 1.15042L12.6422 1.13792ZM8.52956 0.199997V-0.80006L8.51893 -0.799947L8.52956 0.199997ZM7.60375 1.14421L6.60375 1.13379V1.14421H7.60375ZM8.53586 3.5551L8.5479 2.55517L8.54616 2.55515L8.53586 3.5551ZM1.7277 7.11163L2.72763 7.12354L2.72765 7.12206L1.7277 7.11163ZM1.00438 7.75857L1.03321 6.75899L1.03319 6.75899L1.00438 7.75857ZM0.858575 7.75999L0.925954 8.75772L0.93377 8.75719L0.941576 8.75654L0.858575 7.75999ZM0.0461291 8.5909L-0.953812 8.57756L-0.953855 8.58528L0.0461291 8.5909ZM0.0524271 11.9586H1.05249L1.05236 11.9474L0.0524271 11.9586ZM0.890065 12.7958L0.838877 13.7945L0.864455 13.7958H0.890065V12.7958ZM1.20497 12.7958L1.23941 11.7964L1.22219 11.7958H1.20497V12.7958ZM1.734 13.312H2.734V13.2861L2.73267 13.2603L1.734 13.312ZM1.734 13.5952H0.734001V13.6045L0.734173 13.6138L1.734 13.5952ZM3.47226 15.3137L3.47995 14.3137L3.47843 14.3137L3.47226 15.3137ZM5.92849 15.3137V14.3137L5.9208 14.3137L5.92849 15.3137ZM7.92497 14.659L8.51652 15.4653L8.52285 15.4606L7.92497 14.659ZM8.55482 14.1869L9.15558 14.9863L9.15558 14.9863L8.55482 14.1869ZM9.18457 13.7148L8.58845 12.9119L8.58669 12.9133L9.18457 13.7148ZM11.0866 13.7211L10.4855 14.5204L10.4944 14.5269L11.0866 13.7211ZM11.6496 14.1416L11.0483 14.9406L11.6496 14.1416ZM12.3714 14.6779L12.9656 13.8736L12.958 13.868L12.3714 14.6779ZM13.8388 15.2633L13.8857 14.2644L13.8847 14.2644L13.8388 15.2633ZM16.3126 15.3115L16.3067 16.3115H16.3068L16.3126 15.3115ZM16.6666 15.3137L16.66 16.3137L16.6612 16.3137L16.6666 15.3137ZM18.5183 13.4882L17.5183 13.4776L17.5183 13.4828L18.5183 13.4882ZM19.2173 7.75999L19.2067 8.75999H19.2173V7.75999ZM18.5183 7.06757L19.5182 7.05693L19.5182 7.05664L18.5183 7.06757ZM10.1104 2.5551C9.93402 2.5551 9.75731 2.55581 9.58271 2.55651L9.59069 4.55649C9.76597 4.55579 9.93869 4.5551 10.1104 4.5551V2.5551ZM10.6563 2.5565C10.4754 2.55581 10.2927 2.5551 10.1104 2.5551V4.5551C10.2882 4.5551 10.467 4.55579 10.6486 4.55649L10.6563 2.5565ZM11.7364 2.55517C11.3796 2.55927 11.0215 2.55791 10.6563 2.5565L10.6486 4.55649C11.0112 4.55788 11.3846 4.55934 11.7593 4.55504L11.7364 2.55517ZM11.6422 2.63766C11.6417 2.68986 11.6341 2.70386 11.6385 2.69183C11.6439 2.67684 11.66 2.64331 11.6947 2.60833C11.7293 2.57337 11.7626 2.55686 11.7777 2.55126C11.7899 2.54675 11.7765 2.55422 11.7257 2.55535L11.7701 4.55485C12.2352 4.54452 12.7334 4.40176 13.1158 4.0156C13.4984 3.62917 13.637 3.12847 13.6421 2.65965L11.6422 2.63766ZM11.6423 1.15042C11.6484 1.64566 11.6484 2.14091 11.6423 2.63615L13.6421 2.66116C13.6485 2.14924 13.6485 1.63733 13.6421 1.12541L11.6423 1.15042ZM11.7101 1.2C11.7664 1.2 11.7828 1.20814 11.7719 1.20423C11.766 1.20214 11.7541 1.19719 11.7386 1.18751C11.7229 1.17771 11.7061 1.1647 11.6901 1.14849C11.674 1.13229 11.6614 1.11568 11.6522 1.10057C11.6431 1.08565 11.6386 1.07459 11.637 1.06984C11.6339 1.0612 11.6422 1.07986 11.6422 1.13792H13.6422C13.6422 0.657032 13.5052 0.138902 13.1109 -0.259078C12.7152 -0.658508 12.1961 -0.800003 11.7101 -0.800003V1.2ZM8.52956 1.2H11.7101V-0.800003H8.52956V1.2ZM8.6037 1.15463C8.60436 1.09114 8.61328 1.06838 8.61138 1.0738C8.61025 1.07703 8.60637 1.087 8.59773 1.1012C8.58897 1.11562 8.57679 1.13191 8.56094 1.14808C8.54506 1.16426 8.52834 1.17741 8.51251 1.18742C8.49687 1.19731 8.48478 1.20245 8.47872 1.20465C8.46747 1.20876 8.48353 1.20054 8.54019 1.19994L8.51893 -0.799947C8.03951 -0.794849 7.5254 -0.652356 7.13309 -0.252369C6.7436 0.144739 6.60876 0.658642 6.6038 1.13379L8.6037 1.15463ZM8.60375 2.62348V1.14421H6.60375V2.62348H8.60375ZM8.54616 2.55515C8.47781 2.55445 8.45443 2.54507 8.46151 2.54754C8.46576 2.54902 8.47759 2.55364 8.49404 2.56369C8.51076 2.57392 8.5294 2.58802 8.54764 2.60625C8.56589 2.62449 8.58039 2.64351 8.59116 2.66116C8.60177 2.67855 8.60698 2.69165 8.609 2.69753C8.61258 2.70793 8.60375 2.68817 8.60375 2.62348H6.60375C6.60375 3.09611 6.73164 3.61889 7.13379 4.02083C7.53416 4.42099 8.05531 4.5502 8.52556 4.55505L8.54616 2.55515ZM9.58271 2.55651C9.23074 2.55791 8.88726 2.55926 8.5479 2.55517L8.52382 4.55503C8.88191 4.55934 9.24148 4.55788 9.59069 4.55649L9.58271 2.55651ZM10.1167 6.24209H16.6666V4.24209H10.1167V6.24209ZM3.59822 6.24209H10.1167V4.24209H3.59822V6.24209ZM2.72765 7.12206C2.73212 6.69264 2.84795 6.50881 2.92587 6.43093C3.00228 6.35456 3.18013 6.24209 3.59822 6.24209V4.24209C2.81968 4.24209 2.06857 4.4601 1.51203 5.01635C0.956993 5.5711 0.735878 6.32204 0.727758 7.10121L2.72765 7.12206ZM1.07901 8.75999C1.31733 8.75999 1.88506 8.76005 2.30394 8.34139C2.71872 7.92682 2.72479 7.36229 2.72763 7.12354L0.727774 7.09972C0.726499 7.20677 0.71904 7.22697 0.724131 7.20549C0.731785 7.17318 0.767794 7.04905 0.890097 6.92681C1.01325 6.80372 1.13945 6.76685 1.17625 6.7584C1.20103 6.75271 1.18389 6.75999 1.07901 6.75999V8.75999ZM0.975544 8.75816C0.997965 8.75881 1.03687 8.75999 1.07901 8.75999V6.75999C1.07028 6.75999 1.05975 6.75976 1.03321 6.75899L0.975544 8.75816ZM0.941576 8.75654C0.93176 8.75736 0.927367 8.7572 0.932452 8.7572C0.935085 8.7572 0.93945 8.75723 0.946767 8.75739C0.954518 8.75756 0.962876 8.75779 0.975559 8.75816L1.03319 6.75899C0.992061 6.7578 0.890081 6.75391 0.775574 6.76344L0.941576 8.75654ZM1.04604 8.60424C1.04602 8.60579 1.04528 8.62171 1.03528 8.64607C1.02526 8.67049 1.00934 8.69492 0.988791 8.71557C0.945155 8.75942 0.91081 8.75874 0.925954 8.75772L0.791197 6.76227C-0.149601 6.8258 -0.939947 7.54052 -0.953782 8.57756L1.04604 8.60424ZM1.05236 11.9474C1.03985 10.8342 1.03984 9.7134 1.04611 8.59652L-0.953855 8.58528C-0.960173 9.70933 -0.960188 10.842 -0.94751 11.9698L1.05236 11.9474ZM0.941253 11.7971C0.905185 11.7953 0.938492 11.7876 0.988241 11.8366C1.01175 11.8597 1.03 11.8875 1.04123 11.9153C1.05234 11.9427 1.05243 11.9596 1.05243 11.9586H-0.947573C-0.947573 12.4508 -0.765927 12.9165 -0.414183 13.2625C-0.0684267 13.6025 0.383699 13.7712 0.838877 13.7945L0.941253 11.7971ZM1.20497 11.7958H0.890065V13.7958H1.20497V11.7958ZM2.73267 13.2603C2.71832 12.9831 2.64934 12.5475 2.29618 12.2044C1.94566 11.8639 1.51121 11.8058 1.23941 11.7964L1.17052 13.7952C1.26401 13.7984 1.08463 13.8158 0.902585 13.639C0.717898 13.4595 0.730789 13.2758 0.735338 13.3636L2.73267 13.2603ZM2.734 13.5952V13.312H0.734001V13.5952H2.734ZM3.47843 14.3137C3.1988 14.312 3.0291 14.2207 2.93085 14.1236C2.83245 14.0262 2.73902 13.8569 2.73383 13.5767L0.734173 13.6138C0.747875 14.3533 1.01344 15.0401 1.52437 15.5455C2.03546 16.051 2.72544 16.3091 3.46609 16.3137L3.47843 14.3137ZM5.9208 14.3137C5.10718 14.32 4.29357 14.32 3.47995 14.3137L3.46457 16.3137C4.28844 16.32 5.11231 16.32 5.93618 16.3137L5.9208 14.3137ZM7.33343 13.8528C6.912 14.162 6.4514 14.3137 5.92849 14.3137V16.3137C6.87932 16.3137 7.75391 16.0248 8.5165 15.4653L7.33343 13.8528ZM7.95406 13.3875C7.74439 13.545 7.5364 13.7013 7.32708 13.8575L8.52285 15.4606C8.73553 15.302 8.94639 15.1435 9.15558 14.9863L7.95406 13.3875ZM8.58669 12.9133C8.37404 13.0719 8.16321 13.2303 7.95406 13.3875L9.15558 14.9863C9.36521 14.8288 9.57317 14.6725 9.78246 14.5164L8.58669 12.9133ZM11.6876 12.9219C11.2479 12.5913 10.7321 12.3489 10.1381 12.3474C9.54428 12.3459 9.02811 12.5855 8.58845 12.9119L9.7807 14.5177C10.0023 14.3532 10.1065 14.3473 10.133 14.3474C10.1594 14.3474 10.264 14.3537 10.4856 14.5204L11.6876 12.9219ZM12.251 13.3426C12.0643 13.2021 11.8725 13.0577 11.6788 12.9153L10.4944 14.5269C10.6774 14.6614 10.8599 14.7988 11.0483 14.9406L12.251 13.3426ZM12.958 13.868C12.7232 13.698 12.4911 13.5233 12.251 13.3426L11.0483 14.9406C11.2859 15.1194 11.5327 15.3052 11.7848 15.4878L12.958 13.868ZM13.8847 14.2644C13.6084 14.2517 13.3126 14.13 12.9656 13.8736L11.7772 15.4823C12.2993 15.868 12.9734 16.2246 13.7929 16.2623L13.8847 14.2644ZM16.3184 14.3116C15.4883 14.3067 14.6829 14.3019 13.8857 14.2644L13.7919 16.2622C14.6371 16.3019 15.4837 16.3067 16.3067 16.3115L16.3184 14.3116ZM16.6733 14.3137C16.5548 14.3129 16.4364 14.3122 16.3184 14.3116L16.3068 16.3115C16.4248 16.3122 16.5424 16.3129 16.66 16.3137L16.6733 14.3137ZM17.5183 13.4828C17.5162 13.8613 17.4069 14.04 17.3222 14.1236C17.2372 14.2075 17.0553 14.3158 16.6721 14.3137L16.6612 16.3137C17.4368 16.3179 18.1776 16.0895 18.7271 15.547C19.277 15.0043 19.514 14.2671 19.5182 13.4937L17.5183 13.4828ZM19.2173 11.7958C19.0558 11.7958 18.8564 11.8013 18.6618 11.8405C18.4563 11.8818 18.1808 11.9753 17.944 12.21C17.7075 12.4446 17.6117 12.7191 17.5685 12.9236C17.5276 13.1173 17.52 13.3163 17.5183 13.4776L19.5182 13.4989C19.5196 13.3642 19.5271 13.3288 19.5253 13.3372C19.5212 13.3564 19.4889 13.4948 19.3523 13.6302C19.2155 13.7658 19.0765 13.7971 19.0567 13.8011C19.0477 13.8029 19.0829 13.7958 19.2173 13.7958V11.7958ZM19.2061 11.8201C19.2061 11.8607 19.2036 11.8894 19.2009 11.908C19.1982 11.9265 19.1958 11.933 19.1967 11.9303C19.1977 11.9272 19.2021 11.9152 19.2127 11.8977C19.2236 11.8799 19.2386 11.8601 19.2579 11.8411C19.2772 11.822 19.2967 11.8078 19.3133 11.798C19.3296 11.7885 19.34 11.7849 19.3409 11.7847C19.3415 11.7845 19.3327 11.7874 19.3118 11.7903C19.2909 11.7932 19.2599 11.7958 19.2173 11.7958V13.7958C19.6948 13.7958 20.241 13.6801 20.6615 13.2658C21.0848 12.8488 21.2061 12.3017 21.2061 11.8201H19.2061ZM19.2061 8.73568V11.8201H21.2061V8.73568H19.2061ZM19.2173 8.75999C19.2599 8.75999 19.2909 8.7626 19.3118 8.76552C19.3327 8.76842 19.3415 8.77133 19.3409 8.77114C19.34 8.77085 19.3296 8.76734 19.3133 8.75776C19.2967 8.74795 19.2772 8.73376 19.2579 8.71472C19.2386 8.69567 19.2236 8.6759 19.2127 8.65807C19.2021 8.64062 19.1977 8.62855 19.1967 8.62548C19.1958 8.62276 19.1982 8.62927 19.2009 8.64779C19.2036 8.66641 19.2061 8.69514 19.2061 8.73568H21.2061C21.2061 8.25408 21.0848 7.707 20.6615 7.28996C20.241 6.8757 19.6948 6.75999 19.2173 6.75999V8.75999ZM17.5183 7.07821C17.52 7.23925 17.5275 7.43845 17.5687 7.63235C17.6124 7.83788 17.7091 8.11231 17.9469 8.34619C18.1833 8.57879 18.4573 8.67085 18.6588 8.71207C18.8502 8.75121 19.0473 8.75824 19.2067 8.75994L19.228 6.76005C19.0914 6.7586 19.0539 6.75146 19.0596 6.75264C19.0755 6.7559 19.213 6.78619 19.3494 6.92043C19.4872 7.05596 19.5205 7.19544 19.5251 7.21665C19.5271 7.22624 19.5196 7.19175 19.5182 7.05693L17.5183 7.07821ZM16.6666 6.24209C17.0531 6.24209 17.235 6.35088 17.3198 6.43455C17.4043 6.51799 17.5141 6.69669 17.5183 7.0785L19.5182 7.05664C19.5098 6.28651 19.2732 5.55247 18.7248 5.01115C18.1766 4.47008 17.439 4.24209 16.6666 4.24209V6.24209Z" fill="#E60000" mask="url(#path-1-inside-1_291_5155)"/>
</g>
</g>
<defs>
<filter id="filter0_b_291_5155" x="-11.958" y="-11.8" width="44.1641" height="39.1184" filterUnits="userSpaceOnUse" color-interpolation-filters="sRGB">
<feFlood flood-opacity="0" result="BackgroundImageFix"/>
<feGaussianBlur in="BackgroundImageFix" stdDeviation="6"/>
<feComposite in2="SourceAlpha" operator="in" result="effect1_backgroundBlur_291_5155"/>
<feBlend mode="normal" in="SourceGraphic" in2="effect1_backgroundBlur_291_5155" result="shape"/>
</filter>
<clipPath id="clip0_291_5155">
<rect width="20.16" height="15.12" fill="white" transform="translate(0.0400391 0.199997)"/>
</clipPath>
</defs>
</svg>
